<?xml version="1.0" standalone="no"?>
<!DOCTYPE svg PUBLIC "-//W3C//DTD SVG 20010904//EN"
 "http://www.w3.org/TR/2001/REC-SVG-20010904/DTD/svg10.dtd">
<svg version="1.0" xmlns="http://www.w3.org/2000/svg"
 width="304.000000pt" height="259.000000pt" viewBox="0 0 304.000000 259.000000"
 preserveAspectRatio="xMidYMid meet">

<g transform="translate(0.000000,259.000000) scale(0.100000,-0.100000)"
fill="#fff" stroke="none">
<path d="M2413 2361 c-246 -54 -293 -69 -293 -93 0 -6 29 -40 65 -77 36 -37
65 -72 65 -77 0 -5 -171 -180 -380 -389 l-380 -380 -92 90 c-51 50 -98 98
-106 108 -22 29 -70 49 -90 38 -37 -21 -902 -897 -902 -915 0 -23 107 -132
139 -141 21 -6 66 36 402 371 l379 379 123 -123 c95 -94 128 -122 149 -122 21
0 104 79 455 434 235 239 441 444 456 456 l28 22 69 -66 c68 -66 104 -81 114
-48 6 21 43 186 87 396 l33 158 -23 19 c-13 11 -26 19 -30 18 -3 -1 -124 -27
-268 -58z"/>
<path d="M2248 1600 l-178 -172 0 -530 c0 -346 4 -536 10 -549 10 -18 23 -19
169 -19 122 0 161 3 170 14 8 9 10 206 9 720 l-3 708 -177 -172z"/>
<path d="M1768 1116 l-178 -180 0 -281 c0 -238 2 -284 16 -303 15 -21 21 -22
174 -22 147 0 160 1 170 19 12 23 14 952 3 949 -5 0 -88 -82 -185 -182z"/>
<path d="M1162 1067 l-42 -43 0 -335 c0 -247 3 -338 12 -347 17 -17 319 -17
336 0 9 9 12 87 12 290 l0 278 -27 6 c-54 13 -89 37 -168 115 l-81 79 -42 -43z"/>
<path d="M822 727 l-173 -173 3 -109 3 -110 168 -3 167 -2 10 25 c12 31 14
545 2 545 -4 0 -85 -78 -180 -173z"/>
</g>
</svg>
