<?xml version="1.0" encoding="utf-8"?>
<!-- Generator: Adobe Illustrator 23.0.3, SVG Export Plug-In . SVG Version: 6.00 Build 0)  -->
<svg version="1.1" id="Layer_1" xmlns="http://www.w3.org/2000/svg" xmlns:xlink="http://www.w3.org/1999/xlink" x="0px" y="0px"
	 viewBox="0 0 558.728699 558.72876" enable-background="new 0 0 558.728699 558.72876" xml:space="preserve">
<g transform="translate(0.000000,396.000000) scale(0.100000,-0.100000)" fill="#fff">
	<path stroke="#000000" stroke-miterlimit="10" d="M2793.643066,3960C1250.756836,3960,0,2709.243164,0,1166.356201
		C0,369.562988,333.603516-349.290771,868.723145-858.228149v-11.984863H881.5979
		c499.785767-469.411011,1172.2771-757.074585,1912.045166-757.074585
		c1542.887207,0,2793.644043,1250.756836,2793.644043,2793.643799S4336.530273,3960,2793.643066,3960z M4424.722656,1.787109
		c-60.999512-66.000366-65.999512-67.000122-337.999756-70l-247.999756-4.000244v-70c0-133.999634-45.999756-225-135-267.000122
		c-45-20.999756-50-20.999756-858-20.999756c-919.999878,0-876.000244-4.000244-946.000244,75.999756
		c-20.999756,24.000244-41.999512,57.000122-46.999512,72.000122c-4.000244,15-10,169.000244-13.000488,342.000122l-5.999756,315
		l-230,5c-257.999878,5.999756-282.000122,10.999756-332.999878,79.000244c-52.999878,70.999756-52.000122,60-52.000122,395.999756
		c0,347.000122,0,345.999756,64.000244,412.999878c56.999512,61.000366,76.999512,66.000366,328.999634,70l227.000122,4.000244
		v638.999634c0,479.000122,2.999878,649.999878,12.999878,686.000366c15,58.999512,77.999878,125,137.999878,145.999756
		c38.000488,12.999756,145,16.000244,842,16.000244c611.000488,0.999756,807.000244-2,839.000244-11.000244
		c58-18,132.000244-88,148.999756-140c9.000244-30,15-138,19.000244-358l5-314.999878l245-5
		c154-2.999878,254-9.000244,270-17.000122c30.999512-13.999634,90.999512-77.999878,110.999512-117.000122
		c12.000488-25,14.000488-158.999634,14.000488-895C4483.723145,23.787231,4486.723145,67.786865,4424.722656,1.787109z"/>
	<path d="M2048.723145,1979.786987v-640l363-2c200-2,371-2,380,0c14,3,17,16,17,77c0,41-5,77-11,80c-5,4-119,7-252,6
		c-268,0-310,6-315,49c-5,55-6,55,293,58c204,2,277,6,280,15c2,7,6,68,9,137l6,125l-271-3c-234-3-274-1-295,12c-26,18-32,57-11,75
		c9,7,131,12,363,16c387,5,1018,20,1022,23c1,1,1,138.000122,0,305.000122l-3,302l-787,3l-788,2V1979.786987z
		 M3417.723145,2338.787109c26-28,11-65-31-73c-17-3-274-6-572-6c-474,0-544,2-564,16c-26,18-28,46-6,68c14,14,80,16,584,16
		C3394.723145,2359.787109,3397.723145,2359.787109,3417.723145,2338.787109z"/>
	<path d="M3019.723145,1785.786987c-8-9-11-78-9-227l3-213l35-9c90-22,115-34,155-73c63-60,67-92,63-439c-3-282-4-291-26-329.999969
		c-31-54-103-102-167-111c-27-4-53-12-57-18c-9-13-11-198.000015-2-220.000015c6-14,70-16,630-16c606,0,624,1,634,19
		c7,13,10,289,10,825c0,786,0,806-19,816c-13,6-228,10-629,10
		C3135.723145,1799.786987,3028.723145,1797.786987,3019.723145,1785.786987z M4078.723145,1600.786987l35-29v-115
		c0-114,0-116-29-146c-30-31-30-31-141-31c-121,0-143,8-170,60c-19,37-20,195-1,228c27,49,63,62,171,62
		C4039.723145,1629.786987,4045.723145,1628.786987,4078.723145,1600.786987z M4063.723145,1129.786987c42-26,55-64,55-160
		c0-152-20-170-183-170c-105,0-115,2-134,23c-36,39-43,64-43,156c0,82,2,92,27,121c36,43,54,49,157,49
		C4014.723145,1149.786987,4037.723145,1145.786987,4063.723145,1129.786987z M4081.723145,631.786987c30-31,32-37,36-119
		c4-100.999969-9-153.999969-46-181.999969c-22-18-40-21-125-21c-158,0-188,29-188,178c0,75.999969,3,93.999969,23,122.999969
		c35,52,59,60,170,57C4046.723145,663.786987,4049.723145,662.786987,4081.723145,631.786987z"/>
	<path d="M3872.723145,1515.786987c-3-7-4-40-2-72l3-59h70h70l3,66c3,62,1,67-20,73
		C3953.723145,1534.786987,3878.723145,1530.786987,3872.723145,1515.786987z"/>
	<path d="M3870.723145,972.786987l3-68h70h70l3,68l3,67h-76h-76L3870.723145,972.786987z"/>
	<path d="M3872.723145,546.786987c-3-8-4-40.999969-2-72.999969l3-59l58-3c79-4,89,6,85,82l-3,60.999969l-68,3
		C3894.723145,559.786987,3876.723145,556.786987,3872.723145,546.786987z"/>
	<path d="M1425.723145,1122.786987c-4-3-7-124-7-269c0-230,2-263,16-268c24-9,1597-7,1612,2c9,7,12,68,10,273l-3,264l-811,3
		C1796.723145,1128.786987,1428.723145,1126.786987,1425.723145,1122.786987z M2028.723145,997.786987c24-26,25-41,4-62
		c-13-14-50-16-232-17c-255-2-242-3-266,21c-17,17-18,22-6,44c7,14,20,27,29,29c9,3,114,5,233,6
		C2001.723145,1019.786987,2008.723145,1018.786987,2028.723145,997.786987z M2434.723145,788.786987c17-14,18-51,2-67
		c-9-9-122-12-448-12c-424,0-437,1-455,20c-15,16-16,25-7,44c6,14,21,26,34,28s211,2,442,1
		C2296.723145,800.786987,2425.723145,796.786987,2434.723145,788.786987z"/>
	<path d="M2053.723145,366.787018c-3-7-4-143.000015-3-302l3-290h785h785v75v75l-336,5l-336,5l-56,43l-56,42h-283
		c-306,0-328,4-328,53c1,52-1,52,297,57l278,5l3,114c2,85.000015-1,117.000015-10,123.000015c-7,4-176,8-376,8
		C2137.723145,379.787018,2056.723145,376.787018,2053.723145,366.787018z"/>
</g>
</svg>
