<?xml version="1.0" encoding="utf-8"?>
<!-- Generator: Adobe Illustrator 23.0.3, SVG Export Plug-In . SVG Version: 6.00 Build 0)  -->
<svg version="1.1" id="Layer_1" xmlns="http://www.w3.org/2000/svg" xmlns:xlink="http://www.w3.org/1999/xlink" x="0px" y="0px"
	 viewBox="0 0 165 164.9" style="enable-background:new 0 0 165 164.9;" xml:space="preserve">
<g transform="translate(0.000000,213.000000) scale(0.100000,-0.100000)" fill="#fff">
	<path d="M678,2116.4c-315-60-558-280-651-590c-23-76-27-109-27-215c0-84,5-147,16-192c122-495,658-770,1124-576
		c296,122,492,397,510,714c17,295-119,567-365,732C1106,2109.4,884,2155.4,678,2116.4z M1396.9,1311.3
		c0-314-254.6-568.6-568.6-568.6s-568.6,254.6-568.6,568.6s254.6,568.6,568.6,568.6S1396.9,1625.3,1396.9,1311.3z"/>
	<path d="M755.4,1704.7c-133.6-27.4-237.1-108-292.9-225.6C351,1242.8,474.9,979.1,728.9,912.8c229.2-59.3,461.9,95.6,501.7,334.5
		c26.5,158.4-64.6,337.1-211.5,415.9C941.2,1704.7,836.8,1720.6,755.4,1704.7z M846.5,1507.4c1.8-133.6,3.5-149.5,19.5-165.5
		c9.7-9.7,17.7-24.8,17.7-33.6c0-27.4-25.7-54.9-52.2-54.9c-18.6,0-39.8-14.2-81.4-53.1c-31-29.2-61.1-53.1-67.2-53.1
		c-27.4,0-16.8,23,37.2,79.6c35.4,36.3,56.6,64.6,53.1,70.8c-3.5,6.2,1.8,22.1,12.4,36.3c16.8,23,18.6,36.3,18.6,161.9
		c0,146.9,3.5,167.2,25.7,162.8C842.1,1656,843.9,1635.7,846.5,1507.4z"/>
</g>
</svg>
