<?xml version="1.0" encoding="utf-8"?>
<!-- Generator: Adobe Illustrator 23.0.3, SVG Export Plug-In . SVG Version: 6.00 Build 0)  -->
<svg version="1.1" xmlns="http://www.w3.org/2000/svg" xmlns:xlink="http://www.w3.org/1999/xlink" x="0px" y="0px"
	 viewBox="0 0 1029 768" style="enable-background:new 0 0 1029 768;" xml:space="preserve">
<style type="text/css">
	.st0{opacity:0.17;}
	.st1{fill:#A1B8E7;}
	.st2{fill:#FB6061;}
	.st3{fill:#FFFFFF;}
	.st4{fill:#CCCEE3;}
	.st5{fill:none;stroke:#10005F;stroke-width:19;stroke-linejoin:round;stroke-miterlimit:10;}
	.st6{fill:#B4B6D4;}
	.st7{stroke:#010041;stroke-width:10;stroke-miterlimit:10;}
	.st8{fill:#9C85E4;}
	.st9{fill:#B7E7F1;}
	.st10{fill:#F8BFFE;}
	.st11{fill:#9C59E4;}
	.st12{fill:none;stroke:#42122D;stroke-width:18;stroke-linejoin:round;stroke-miterlimit:10;}
	.st13{fill:none;stroke:#42122D;stroke-width:24;stroke-linejoin:round;stroke-miterlimit:10;}
	.st14{fill:none;stroke:#42122D;stroke-width:27;stroke-miterlimit:10;}
	.st15{fill:#FFFFFF;stroke:#42122D;stroke-width:27;stroke-miterlimit:10;}
	.st16{fill:none;stroke:#42122D;stroke-width:14;stroke-linejoin:round;stroke-miterlimit:10;}
	.st17{display:none;opacity:0.31;}
	.st18{display:none;}
	.st19{display:inline;fill:#008FFF;}
	.st20{display:inline;fill:#006FFF;}
	.st21{display:inline;fill:none;stroke:#303030;stroke-width:14;stroke-miterlimit:10;}
	.st22{display:inline;fill:#FF5555;stroke:#323232;stroke-width:11;stroke-miterlimit:10;}
	.st23{display:inline;opacity:0.23;}
	.st24{display:inline;fill:#FFFD75;}
	.st25{display:inline;opacity:0.15;}
	.st26{display:inline;fill:#FFD275;}
	.st27{fill:#FFFFFF;stroke:#FB6061;stroke-width:11;stroke-miterlimit:10;}
	.st28{fill:#FFFFFF;stroke:#FB6061;stroke-width:9;stroke-miterlimit:10;}
	.st29{fill:#FFFFFF;stroke:#FB6061;stroke-width:15;stroke-miterlimit:10;}
	.st30{display:none;fill:none;stroke:#303030;stroke-width:12;stroke-linejoin:round;stroke-miterlimit:10;}
	.st31{display:none;fill:none;stroke:#4F5357;stroke-width:14;stroke-miterlimit:10;}
	.st32{fill:none;stroke:#000000;stroke-width:10;stroke-linejoin:round;stroke-miterlimit:10;}
	.st33{fill:none;stroke:#303030;stroke-width:12;stroke-linejoin:round;stroke-miterlimit:10;}
</style>
<g id="Layer_12">
	<ellipse class="st0" cx="661.5" cy="634.5" rx="344.5" ry="74.5"/>
</g>
<g id="Layer_9">
	<polygon class="st1" points="200.16,151.58 172.7,185.47 186.14,185.47 186.14,226.37 213.02,226.37 213.02,185.47 226.46,185.47 	
		"/>
	<polygon class="st2" points="124.72,239.05 106.47,261.58 115.4,261.58 115.4,288.76 133.26,288.76 133.26,261.58 142.2,261.58 	
		"/>
	<polygon class="st1" points="61.23,229.45 47.92,245.89 54.43,245.89 54.43,265.72 67.47,265.72 67.47,245.89 73.98,245.89 	"/>
	<polygon class="st2" points="278.07,140.19 265.81,155.31 271.81,155.31 271.81,173.57 283.81,173.57 283.81,155.31 289.81,155.31 
			"/>
</g>
<g id="Layer_6">
	
		<rect x="162.85" y="301.68" transform="matrix(0.9858 -0.1678 0.1678 0.9858 -73.229 56.7361)" class="st3" width="272.48" height="319.97"/>
	<path class="st4" d="M404.48,285.33l52.43,306.26l-265.09,45.65c6.12-2.33-8.63-13.98-0.13-17.95
		c31.86-14.88,99.67-33.83,136.33-82.4c35.24-46.68-9.08-163.02,0.28-221.71C332.73,287.31,404.63,288.4,404.48,285.33z"/>
	<path class="st3" d="M439.38,576.49l-49.8-292.57l9.76-1.66l52.26,307.02l-265.48,45.19l-1.03-6.06L431.27,585
		c0.78-0.12,4.47-0.77,6.67-4.31C438.92,579.11,439.25,577.52,439.38,576.49z"/>
	
		<rect x="162.85" y="301.68" transform="matrix(0.9858 -0.1678 0.1678 0.9858 -73.229 56.7361)" class="st5" width="272.48" height="319.97"/>
</g>
<g id="Layer_7">
	
		<rect x="114.15" y="275.2" transform="matrix(0.8068 -0.5908 0.5908 0.8068 -208.736 231.9976)" class="st3" width="272.48" height="319.97"/>
	<path class="st4" d="M235.69,634.37"/>
	<path class="st3" d="M433.64,475.19L258.31,235.75l7.98-5.85l183.99,251.27l-217.27,159.1l-3.63-4.96L430.2,486.42
		c0.64-0.46,3.65-2.69,4.04-6.84C434.41,477.73,433.99,476.16,433.64,475.19z"/>
	
		<rect x="114.15" y="275.2" transform="matrix(0.8304 -0.5571 0.5571 0.8304 -199.9978 213.3008)" class="st5" width="272.48" height="319.97"/>
</g>
<g id="colorGDP">
	
		<rect x="113.83" y="271.97" transform="matrix(0.9566 -0.2913 0.2913 0.9566 -114.9693 91.5647)" class="st3" width="272.48" height="319.97"/>
	<path class="st4" d="M346.74,309.57l76.32,231.28l-251.89,76.69c27.83-13.4,80.25-43.05,121.85-99.06
		C360.54,427.55,350.19,333.55,346.74,309.57z"/>
	<path class="st3" d="M406.41,530.8l-71.65-235.33l9.45-2.88l75.19,246.95l-257.29,78.34l-1.49-4.88l238.49-73.89
		c0.76-0.22,4.33-1.33,6.21-4.61C406.17,533.04,406.37,531.67,406.41,530.8z"/>
	<path class="st6" d="M284.68,392.1l-61.24,18.65c-1.92,0.59-3.01,2.62-2.42,4.54l0.29,0.96c0.59,1.92,2.62,3.01,4.54,2.42
		l61.24-18.65c1.92-0.59,3.01-2.62,2.42-4.54l-0.29-0.96C288.64,392.6,286.6,391.51,284.68,392.1z"/>
	<path class="st6" d="M285.2,415.93l-69.71,21.22c-1.92,0.59-3.01,2.62-2.42,4.54l0.29,0.96c0.59,1.92,2.62,3.01,4.54,2.42
		l69.71-21.22c1.92-0.59,3.01-2.62,2.42-4.54l-0.29-0.96C289.15,416.43,287.12,415.34,285.2,415.93z"/>
	<path class="st6" d="M254.29,456.65l-47.76,14.54c-1.92,0.59-3.01,2.62-2.42,4.54l0.29,0.96c0.59,1.92,2.62,3.01,4.54,2.42
		l47.76-14.54c1.92-0.59,3.01-2.62,2.42-4.54l-0.29-0.96C258.24,457.15,256.21,456.07,254.29,456.65z"/>
	<path class="st6" d="M280.32,463.38l-69.71,21.22c-1.92,0.59-3.01,2.62-2.42,4.54l0.29,0.96c0.59,1.92,2.62,3.01,4.54,2.42
		l69.71-21.22c1.92-0.59,3.01-2.62,2.42-4.54l-0.29-0.96C284.28,463.88,282.25,462.8,280.32,463.38z"/>
	<path class="st6" d="M266.54,496.9l-47.76,14.54c-1.92,0.59-3.01,2.62-2.42,4.54l0.29,0.96c0.59,1.92,2.62,3.01,4.54,2.42
		l47.76-14.54c1.92-0.59,3.01-2.62,2.42-4.54l-0.29-0.96C270.5,497.39,268.46,496.31,266.54,496.9z"/>
	<path class="st6" d="M329.77,492.3l-108.13,32.92c-1.92,0.59-3.01,2.62-2.42,4.54l0.29,0.96c0.59,1.92,2.62,3.01,4.54,2.42
		l108.13-32.92c1.92-0.59,3.01-2.62,2.42-4.54l-0.29-0.96C333.73,492.8,331.69,491.72,329.77,492.3z"/>
	<path class="st6" d="M206.56,415.88l-49.59,15.1c-1.92,0.59-3.01,2.62-2.42,4.54l0.29,0.96c0.59,1.92,2.62,3.01,4.54,2.42
		l49.59-15.1c1.92-0.59,3.01-2.62,2.42-4.54l-0.29-0.96C210.52,416.38,208.48,415.3,206.56,415.88z"/>
	<path class="st6" d="M328.58,378.73l-25.42,7.74c-1.92,0.59-3.01,2.62-2.42,4.54l0.29,0.96c0.59,1.92,2.62,3.01,4.54,2.42
		l25.42-7.74c1.92-0.59,3.01-2.62,2.42-4.54l-0.29-0.96C332.54,379.23,330.5,378.15,328.58,378.73z"/>
	<path class="st6" d="M175.9,503.51l-12.47,3.8c-4.97,1.51-10.23-1.29-11.75-6.26l-3.24-10.65c-1.51-4.97,1.29-10.23,6.26-11.75
		l12.47-3.8c4.97-1.51,10.23,1.29,11.75,6.26l3.24,10.65C183.68,496.73,180.87,501.99,175.9,503.51z"/>
	<path class="st6" d="M188.15,543.75l-12.47,3.8c-4.97,1.51-10.23-1.29-11.75-6.26l-3.24-10.65c-1.51-4.97,1.29-10.23,6.26-11.75
		l12.47-3.8c4.97-1.51,10.23,1.29,11.75,6.26l3.24,10.65C195.93,536.97,193.13,542.23,188.15,543.75z"/>
</g>
<g id="outlineGDP">
	
		<rect x="113.83" y="271.97" transform="matrix(0.9566 -0.2913 0.2913 0.9566 -114.9693 91.5647)" class="st5" width="272.48" height="319.97"/>
	<g>
		<g>
			<path class="st7" d="M186.25,359.2c-2.68,2.04-8.16,5.55-15.2,7.69c-7.92,2.41-15.04,2.44-21.58-0.81
				c-5.79-2.87-10.62-8.8-13.03-16.75c-4.61-15.24,2.7-29.65,20.19-34.97c6.03-1.84,11.21-1.99,13.77-1.63l-0.05,5.89
				c-3.16-0.39-6.93-0.28-12.2,1.32c-12.67,3.86-18.62,14.09-14.73,26.88c3.94,12.94,14.21,18.18,26.42,14.47
				c4.41-1.34,7.21-2.86,8.54-4.1l-4.63-15.21l-10.56,3.22l-1.61-5.27l17.19-5.23L186.25,359.2z"/>
			<path class="st7" d="M192.63,304.73c3.94-1.92,8.7-3.85,14.01-5.47c9.66-2.94,17.26-2.81,23.1-0.03
				c5.93,2.71,10.45,7.8,12.95,16.02c2.55,8.37,1.94,15.96-1.46,22.15c-3.49,6.26-10.76,11.32-20.87,14.4
				c-4.83,1.47-8.89,2.5-12.44,3.16L192.63,304.73z M213.16,347.84c1.79-0.25,4.3-0.97,6.88-1.75
				c14.46-4.37,19.85-14.61,15.64-28.42c-3.59-12.08-12.88-17.57-27.1-13.24c-3.49,1.06-6.01,2.17-7.7,3.08L213.16,347.84z"/>
			<path class="st7" d="M254.96,285.67c3.08-1.56,7.2-3.31,12.67-4.97c6.62-2.02,11.97-2.01,15.92-0.21
				c3.58,1.58,6.46,4.75,7.85,9.29c1.41,4.63,1.11,8.71-0.73,12.16c-2.46,4.83-7.66,8.44-14.25,10.45c-2.05,0.62-3.92,1.11-5.6,1.18
				l6.24,20.48l-6.74,2.05L254.96,285.67z M269.19,308.21c1.63-0.03,3.55-0.46,5.77-1.13c8.18-2.49,11.92-7.92,9.79-14.89
				c-2.06-6.76-7.99-8.56-15.39-6.31c-2.97,0.91-5.1,1.85-6.22,2.46L269.19,308.21z"/>
		</g>
	</g>
</g>
<g id="colors">
	<path class="st8" d="M344.04,48.52c0,15.04,0,30.08,0,45.11c0.31,1.62,1.59,7.15,6.72,11.52c5.15,4.39,10.83,4.75,12.48,4.8
		c193.26,0.32,386.51,0.64,579.77,0.96c2.33-1.1,6.83-3.6,10.56-8.64c3.04-4.11,4.27-8.16,4.8-10.56c0-15.36,0-30.72,0-46.07
		c-0.79-2.95-2.72-8.5-7.68-13.44c-9-8.95-20.77-8.73-23.04-8.64c-187.82,1.28-375.63,2.56-563.45,3.84
		c-1.77-0.03-8.13,0.08-13.44,4.8c-2.66,2.36-4.07,5-4.8,6.72C345.32,42.12,344.68,45.32,344.04,48.52z"/>
	<polygon class="st3" points="370.92,115.71 370.92,405.59 892.13,411.35 892.13,115.71 	"/>
	<polygon class="st8" points="614.25,602.85 652.16,602.85 688.06,602.85 690.08,449.27 614.25,449.27 	"/>
	<path class="st8" d="M568.17,603.81c-2.65,0.22-7.51,0.86-12.48,3.84c-8.82,5.28-11.75,13.92-12.48,16.32
		c-0.92,2.91-1.92,7.21-1.92,12.48c0,3.05,0.34,7.45,1.92,12.48c1.28,2.94,3.36,6.75,6.72,10.56c6.21,7.02,13.39,10.16,17.28,11.52
		c55.03-0.32,110.07-0.64,165.1-0.96c13.86-3.03,24.89-12.98,28.36-25.86c3.94-14.61-3.55-26.64-4.37-27.89
		c-5.51-8.54-13.26-12.19-16.32-13.44C648.34,602.3,581.25,602.74,568.17,603.81z"/>
	<path class="st9" d="M588.33,181.46c15.04,0,30.08,0,45.11,0c0,20.8,0,41.59,0,62.39c0,34.24,0,68.47,0,102.71
		c-15.04,0-30.08,0-45.11,0C588.33,291.53,588.33,236.49,588.33,181.46z"/>
	<path class="st9" d="M668.96,215.06c15.04,0,30.08,0,45.11,0c0,16.57,0,33.13,0,49.7c0,27.27,0,54.54,0,81.81
		c-15.04,0-30.08,0-45.11,0C668.96,302.73,668.96,258.89,668.96,215.06z"/>
	<path class="st9" d="M747.67,250.57c15.04,0,30.08,0,45.11,0c0,12.09,0,24.18,0,36.27c0,19.9,0,39.81,0,59.71
		c-15.04,0-30.08,0-45.11,0C747.67,314.56,747.67,282.57,747.67,250.57z"/>
	<path class="st9" d="M827.34,280.33c15.04,0,30.08,0,45.11,0c0,8.46,0,16.93,0,25.39c0,13.93,0,27.87,0,41.8
		c-15.04,0-30.08,0-45.11,0C827.34,325.12,827.34,302.73,827.34,280.33z"/>
	<path class="st10" d="M379.08,386.88c1.02,1.41,3.14,3.95,6.72,5.76c2.68,1.35,5.14,1.78,6.72,1.92
		c150.7-0.32,301.4-0.64,452.1-0.96c2.59-0.49,12.16-2.62,19.2-11.52c5.52-6.97,6.49-14.33,6.72-17.28c0-80.31,0-160.62,0-240.93
		h52.79l0.96,282.2c0.35,1.7,2.44,12.69-4.8,22.08c-6.29,8.15-17.16,11.89-27.84,9.6c-70.39-0.32-140.78-0.64-211.17-0.96h-282.2
		l-27.84-14.4C373.32,410.55,376.2,398.71,379.08,386.88z"/>
	<polygon class="st11" points="614.25,462.71 615.21,512.62 684.32,512.62 684.32,462.71 	"/>
	<path class="st11" d="M841.74,25.48v1.42v9.8c2.66,5.78,6.68,16.53,6.72,30.53c0.04,14.21-4.05,25.1-6.72,30.9
		c0,2.98,0,5.96,0,8.94l103.58-1.92l16.89-43.19l-37.15-36.48H841.74z"/>
	<path class="st11" d="M834.06-5.72"/>
	<path class="st11" d="M992.44,109.47"/>
</g>
<g id="outline">
	<path class="st12" d="M429.95,249.61c31.11,0.27,62.21,0.54,93.32,0.81c3.77,0.05,7.54,0.1,11.31,0.15
		C499.7,250.25,464.83,249.93,429.95,249.61z"/>
	<path class="st12" d="M429.95,298.57c31.11,0.27,62.21,0.54,93.32,0.81c3.77,0.05,7.54,0.1,11.31,0.15
		C499.7,299.21,464.83,298.89,429.95,298.57z"/>
	<path class="st12" d="M429.95,346.56c31.11,0.27,62.21,0.54,93.32,0.81c3.77,0.05,7.54,0.1,11.31,0.15
		C499.7,347.2,464.83,346.88,429.95,346.56z"/>
	<polygon class="st13" points="614.25,602.85 652.16,602.85 688.06,602.85 690.08,449.27 614.25,449.27 	"/>
	<path class="st13" d="M568.17,603.81c-2.65,0.22-7.51,0.86-12.48,3.84c-8.82,5.28-11.75,13.92-12.48,16.32
		c-0.92,2.91-1.92,7.21-1.92,12.48c0,3.05,0.34,7.45,1.92,12.48c1.28,2.94,3.36,6.75,6.72,10.56c6.21,7.02,13.39,10.16,17.28,11.52
		c55.03-0.32,110.07-0.64,165.1-0.96c13.86-3.03,24.89-12.98,28.36-25.86c3.94-14.61-3.55-26.64-4.37-27.89
		c-5.51-8.54-13.26-12.19-16.32-13.44C648.34,602.3,581.25,602.74,568.17,603.81z"/>
	<path class="st14" d="M344.04,48.52c0,15.04,0,30.08,0,45.11c0.31,1.62,1.59,7.15,6.72,11.52c5.15,4.39,10.83,4.75,12.48,4.8
		c193.26,0.32,386.51,0.64,579.77,0.96c2.33-1.1,6.83-3.6,10.56-8.64c3.04-4.11,4.27-8.16,4.8-10.56c0-15.36,0-30.72,0-46.07
		c-0.79-2.95-2.72-8.5-7.68-13.44c-9-8.95-20.77-8.73-23.04-8.64c-187.82,1.28-375.63,2.56-563.45,3.84
		c-1.77-0.03-8.13,0.08-13.44,4.8c-2.66,2.36-4.07,5-4.8,6.72C345.32,42.12,344.68,45.32,344.04,48.52z"/>
	<path class="st14" d="M367.31,110.91c-0.4,98.23-0.8,196.46-1.19,294.68c-0.19,3.44-0.56,17.45,9.6,29.76
		c7.31,8.85,16.28,12.23,20.16,13.44c167.5,0.48,335,0.96,502.5,1.44c4.02-0.25,13.43-1.4,22.56-8.16
		c12.51-9.26,15.62-22.5,16.32-25.92c0-0.96,0-12.47,0-13.44c-0.01-97.27-0.17-194.54-0.48-291.8
		C746.95,110.91,557.13,110.91,367.31,110.91z"/>
	<path class="st15" d="M872.94,123.39"/>
	<path class="st16" d="M588.33,181.46c15.04,0,30.08,0,45.11,0c0,20.8,0,41.59,0,62.39c0,34.24,0,68.47,0,102.71
		c-15.04,0-30.08,0-45.11,0C588.33,291.53,588.33,236.49,588.33,181.46z"/>
	<path class="st16" d="M668.96,215.06c15.04,0,30.08,0,45.11,0c0,16.57,0,33.13,0,49.7c0,27.27,0,54.54,0,81.81
		c-15.04,0-30.08,0-45.11,0C668.96,302.73,668.96,258.89,668.96,215.06z"/>
	<path class="st16" d="M747.67,250.57c15.04,0,30.08,0,45.11,0c0,12.09,0,24.18,0,36.27c0,19.9,0,39.81,0,59.71
		c-15.04,0-30.08,0-45.11,0C747.67,314.56,747.67,282.57,747.67,250.57z"/>
	<path class="st16" d="M827.34,280.33c15.04,0,30.08,0,45.11,0c0,8.46,0,16.93,0,25.39c0,13.93,0,27.87,0,41.8
		c-15.04,0-30.08,0-45.11,0C827.34,325.12,827.34,302.73,827.34,280.33z"/>
</g>
<g id="colorsProps">
	<path class="st17" d="M866,352.19c64.33-37.06,128.67-74.13,193-111.19c-1.68,6.27-5.29,23.09,2,42c4.54,11.77,11.49,19.65,16,24
		C1006.67,322.06,936.33,337.13,866,352.19z"/>
</g>
<g id="Layer_11" class="st18">
	<rect x="853.28" y="324.54" class="st19" width="369.05" height="259.8"/>
	<path class="st20" d="M1191.63,324.54c0.02,4.88,0,83.22,0,128.32c0,48.78,0.2,62.85,0.06,114.16c-0.02,7.26-0.04,13.26-0.06,17.32
		c9.5,2.51,19.31,0,25.37-6.66c5.36-5.89,5.91-12.95,6-15.32c-0.72-75.45-1.01-132.99-0.67-175.2c0.13-16.53,0.61-60.78-9.33-62.62
		c-0.54-0.1-1.01-0.06-1.33,0C1204.99,324.54,1198.31,324.54,1191.63,324.54z"/>
	<rect x="853.28" y="324.54" class="st21" width="369.05" height="259.8"/>
	<circle class="st22" cx="1036.26" cy="455.99" r="103.04"/>
	<path class="st23" d="M1085.09,408.02c-36.14,0-72.28,0-108.42,0c0.52,7.89,3,28.79,19.36,43.88c3.57,3.3,7.26,5.81,10.76,7.74
		c-2.06,0.99-5.02,2.61-8.17,5.16c-4.93,3.99-7.72,8.11-10.33,12.05c-3.65,5.51-5.7,10.23-6.45,12.05
		c-3.4,8.21-4.75,15.98-5.16,22.37c35.42,0,70.84,0,106.27,0c0.56-5.22,1.34-18.96-6.45-33.56c-6.64-12.43-16.11-19.14-20.65-21.94
		c6.11-4.86,15.5-13.71,22.37-27.53C1081.97,420.67,1083.98,413.63,1085.09,408.02z"/>
	<path class="st24" d="M1066.16,404.15c-0.02,6.37-0.77,15.67-4.3,26.24c-3.9,11.67-9.62,20.16-13.77,25.38
		c3.5,4.4,7.44,10.26,10.76,17.64c6.13,13.64,7.27,26.11,7.31,33.99c-2.87,0-5.74,0-8.6,0c0.3-8.64-0.44-15.82-1.29-21.08
		c-0.9-5.57-2.03-9.72-3.01-13.34c-1.5-5.5-2.44-7.76-3.01-9.03c-1.6-3.58-3.39-6.33-4.73-8.17c1.05-1.36,2.48-3.39,3.87-6.02
		c0.76-1.44,2.58-5.08,4.73-14.2c0.69-2.94,1.8-7.69,2.58-14.2c0.55-4.56,0.99-10.4,0.86-17.21
		C1060.43,404.15,1063.3,404.15,1066.16,404.15z"/>
	<path class="st24" d="M993.89,404.15c-2.87,0-5.74,0-8.6,0c0.52,7.89,3,28.79,19.36,43.88c3.57,3.3,7.26,5.81,10.76,7.74
		c-2.06,0.99-5.02,2.61-8.17,5.16c-4.93,3.99-7.72,8.11-10.33,12.05c-3.65,5.51-5.7,10.23-6.45,12.05
		c-3.4,8.21-4.75,15.98-5.16,22.37c2.87,0,5.74,0,8.6,0c-0.11-6.7,0.72-15.82,4.73-25.38c2.78-6.63,6.3-11.58,8.17-14.2
		c3.36-4.67,6.19-7.51,7.31-8.6c1.5-1.46,2.85-2.61,3.87-3.44c-1.94-1.7-4.53-4.14-7.31-7.31c-2.9-3.3-7.19-8.3-10.76-15.92
		c-3.03-6.49-4.14-11.98-4.73-15.06C994.15,412.21,993.89,407.62,993.89,404.15z"/>
	<path class="st24" d="M1004.21,404.15c-2.87,0-5.74,0-8.6,0c0.09,7.77,1.29,19.14,6.88,29.69c2.35,4.43,5.49,8.74,6.02,9.47
		c4.03,5.5,8.07,9.62,11.19,12.48c-1.52,1.43-3.62,3.46-6.02,6.02c-3.23,3.44-4.95,5.28-6.88,8.17c-1.44,2.15-2.35,3.92-3.87,6.88
		c-1.01,1.97-1.98,3.85-3.01,6.45c-0.06,0.14-1.26,3.19-2.15,6.45c-1.98,7.27-2.15,14.69-2.15,17.64c2.87,0,5.74,0,8.6,0
		c0.23-6.27,0.95-11.64,1.72-15.92c0.44-2.42,0.86-4.71,1.72-7.74c0.46-1.62,2.21-7.58,6.02-14.63c1.98-3.66,4-6.66,5.59-9.03
		c1.2-1.78,2.24-3.25,3.01-4.3c-2.36-2.92-5.36-7.08-8.17-12.48c-2.17-4.17-3.43-7.53-4.3-9.9c-2.92-7.89-4.06-14.11-4.3-15.49
		C1004.86,414.3,1004.27,409.63,1004.21,404.15z"/>
	<path class="st24" d="M1005.93,404.15c0.02,6.37,0.77,15.67,4.3,26.24c3.9,11.67,9.62,20.16,13.77,25.38
		c-3.5,4.4-7.44,10.26-10.76,17.64c-6.13,13.64-7.27,26.11-7.31,33.99c2.87,0,5.74,0,8.6,0c-0.3-8.64,0.44-15.82,1.29-21.08
		c0.9-5.57,2.03-9.72,3.01-13.34c1.5-5.5,2.44-7.76,3.01-9.03c1.6-3.58,3.39-6.33,4.73-8.17c-1.05-1.36-2.48-3.39-3.87-6.02
		c-0.76-1.44-2.58-5.08-4.73-14.2c-0.69-2.94-1.8-7.69-2.58-14.2c-0.55-4.56-0.99-10.4-0.86-17.21
		C1011.67,404.15,1008.8,404.15,1005.93,404.15z"/>
	<path class="st24" d="M1024.86,404.15h-8.6c0.04,7.28,0.59,13.66,1.29,18.93c0.69,5.26,1.29,9.79,3.01,15.49
		c2.04,6.77,4.86,12.5,7.74,17.21c-1.63,2.61-3.96,6.71-6.02,12.05c-3.42,8.85-4.28,16.39-5.16,24.52
		c-0.4,3.66-0.82,8.82-0.86,15.06c2.87,0,5.74,0,8.6,0c-0.3-10.04,0-18.48,0.43-24.95c0.55-8.38,1.32-13.61,3.01-19.36
		c0.9-3.07,1.86-5.57,2.58-7.31c-1.01-2.2-2.39-5.59-3.44-9.9c-0.81-3.31-1.11-6.22-1.72-12.05c-0.42-4.01-0.8-7.67-0.86-12.48
		c-0.02-1.38-0.02-3.37-0.01-6.97c0-2.18,0.01-3.67,0.01-5.94C1024.86,406.64,1024.86,405.15,1024.86,404.15z"/>
	<path class="st24" d="M1035.19,404.15h-8.6c-0.23,11.23,0.3,20.1,0.86,26.24c0.5,5.48,1.05,9.09,1.72,12.48
		c1.06,5.32,2.37,9.71,3.44,12.91c-0.89,2.53-2.01,6.05-3.01,10.33c-0.42,1.82-1.77,7.8-2.58,18.93
		c-0.43,5.85-0.73,13.43-0.43,22.37c2.87,0,5.74,0,8.6,0v-51.63V404.15z"/>
	<path class="st24" d="M1078.21,404.15c1.91,0,3.81,0,5.72,0c0.96,0,1.92,0,2.88,0c-0.52,7.89-3,28.79-19.36,43.88
		c-3.57,3.3-7.26,5.81-10.76,7.74c2.06,0.99,5.02,2.61,8.17,5.16c4.93,3.99,7.72,8.11,10.33,12.05c3.65,5.51,5.7,10.23,6.45,12.05
		c3.4,8.21,4.75,15.98,5.16,22.37c-2.87,0-5.74,0-8.6,0c0.11-6.7-0.72-15.82-4.73-25.38c-2.78-6.63-6.3-11.58-8.17-14.2
		c-3.36-4.67-6.19-7.51-7.31-8.6c-1.5-1.46-2.85-2.61-3.87-3.44c1.94-1.7,4.53-4.14,7.31-7.31c2.9-3.3,7.19-8.3,10.76-15.92
		c3.03-6.49,4.14-11.98,4.73-15.06C1077.94,412.21,1078.21,407.62,1078.21,404.15z"/>
	<path class="st24" d="M1067.89,404.15c2.87,0,5.74,0,8.6,0c-0.09,7.77-1.29,19.14-6.88,29.69c-2.35,4.43-5.49,8.74-6.02,9.47
		c-4.03,5.5-8.07,9.62-11.19,12.48c1.52,1.43,3.62,3.46,6.02,6.02c3.23,3.44,4.95,5.28,6.88,8.17c1.44,2.15,2.35,3.92,3.87,6.88
		c1.01,1.97,1.98,3.85,3.01,6.45c0.06,0.14,1.26,3.19,2.15,6.45c1.98,7.27,2.15,14.69,2.15,17.64c-2.87,0-5.74,0-8.6,0
		c-0.23-6.27-0.95-11.64-1.72-15.92c-0.44-2.42-0.86-4.71-1.72-7.74c-0.46-1.62-2.21-7.58-6.02-14.63c-1.98-3.66-4-6.66-5.59-9.03
		c-1.2-1.78-2.24-3.25-3.01-4.3c2.36-2.92,5.36-7.08,8.17-12.48c2.17-4.17,3.43-7.53,4.3-9.9c2.92-7.89,4.06-14.11,4.3-15.49
		C1067.24,414.3,1067.82,409.63,1067.89,404.15z"/>
	<path class="st24" d="M1047.23,404.15h8.6c-0.04,7.28-0.59,13.66-1.29,18.93c-0.69,5.26-1.29,9.79-3.01,15.49
		c-2.04,6.77-4.86,12.5-7.74,17.21c1.63,2.61,3.96,6.71,6.02,12.05c3.42,8.85,4.28,16.39,5.16,24.52c0.4,3.66,0.82,8.82,0.86,15.06
		c-2.87,0-5.74,0-8.6,0c0.3-10.04,0-18.48-0.43-24.95c-0.55-8.38-1.32-13.61-3.01-19.36c-0.9-3.07-1.86-5.57-2.58-7.31
		c1.01-2.2,2.39-5.59,3.44-9.9c0.81-3.31,1.11-6.22,1.72-12.05c0.42-4.01,0.8-7.67,0.86-12.48c0.02-1.38,0.02-3.37,0.01-6.97
		c0-2.18-0.01-3.67-0.01-5.94C1047.23,406.64,1047.23,405.15,1047.23,404.15z"/>
	<path class="st24" d="M1036.91,404.15h8.6c0.23,11.23-0.3,20.1-0.86,26.24c-0.5,5.48-1.05,9.09-1.72,12.48
		c-1.06,5.32-2.37,9.71-3.44,12.91c0.89,2.53,2.01,6.05,3.01,10.33c0.42,1.82,1.77,7.8,2.58,18.93c0.43,5.85,0.73,13.43,0.43,22.37
		c-2.87,0-5.74,0-8.6,0v-51.63V404.15z"/>
	<path class="st25" d="M1073.57,359.74c5.1,3.69,47.65,35.55,49.39,92.16c1.93,63.06-48.55,98.91-52.06,101.31
		c8.13-2.88,36.07-13.89,54.21-44.09c15.52-25.83,15.02-50.96,14.39-60.23c-0.65-9.34-3.41-30.92-18.69-52.49
		C1104.09,372.8,1082.21,363.06,1073.57,359.74z"/>
	<path class="st26" d="M1055.84,455.77c4.96-3.42,14.84-11.23,21.51-24.95c5.32-10.93,6.32-20.91,6.45-26.67c1,0,2.01,0,3.01,0
		c-0.18,4.2-0.83,10.26-3.01,17.21c-1.44,4.59-4.53,14.1-12.91,23.23c-2.85,3.11-7.45,7.42-14.2,11.19
		c2.69,1.26,6.49,3.38,10.33,6.88c3.18,2.91,5.06,5.56,6.88,8.17c5.08,7.27,7.67,13.84,8.6,16.35c2.89,7.8,3.95,14.87,4.3,20.22
		c-1.15,0-2.29,0-3.44,0c-0.14-3.18-0.54-7.67-1.72-12.91c-1.3-5.75-3.96-16.98-12.91-27.53
		C1066.16,463.91,1062.01,459.68,1055.84,455.77z"/>
	<path class="st26" d="M1074.77,482.02"/>
	<path class="st26" d="M1076.49,404.15h-3.14c0.22,5.17-0.08,11.87-2.02,19.36c-4.31,16.62-14.14,27.34-19.36,32.27
		c4.25,3.96,10.71,10.99,15.49,21.51c5.73,12.61,6.19,23.99,6,30.12c1.01,0,2.02,0,3.03,0c0.02-3.99-0.3-9.35-1.72-15.49
		c-2.05-8.88-5.46-15.32-7.31-18.5c-4.92-8.43-10.8-14.14-15.06-17.64c3.07-2.82,6.93-6.79,10.76-12.05
		c2.33-3.2,6.09-8.43,9.03-15.92C1075.59,419.15,1076.54,410.89,1076.49,404.15z"/>
	<path class="st26" d="M1066.16,404.15h-3.01c-0.03,6.49-0.73,15.15-3.44,24.95c-3.23,11.7-8.13,20.67-12.05,26.67
		c3.33,5.44,6.97,12.49,9.9,21.08c4.09,11.99,5.32,22.69,5.59,30.55c1,0,2.01,0,3.01,0c-0.05-7.87-1.19-20.35-7.31-33.99
		c-3.32-7.38-7.26-13.24-10.76-17.64c3.88-4.92,8.75-12.24,12.48-21.94C1065.19,421.8,1066.12,411.11,1066.16,404.15z"/>
	<path class="st26" d="M1055.84,404.15h-3.1c0.08,5.72-0.13,10.45-0.34,13.77c-0.58,9.08-1.15,17.17-4.3,26.67
		c-1.63,4.93-3.47,8.77-4.73,11.19c3.2,6.71,4.98,12.55,6.02,16.78c1.76,7.16,2.25,13.15,3.01,22.37c0.42,5.14,0.63,9.43,0.74,12.48
		c0.9,0,1.8,0,2.7,0c-0.01-4.41-0.21-8.19-0.43-11.19c-0.38-5.03-0.92-8.93-1.29-11.62c-0.4-2.86-0.6-4.29-0.86-5.59
		c-1.32-6.63-3.55-11.54-5.16-15.06c-0.98-2.13-2.38-4.95-4.3-8.17c4.12-6.95,6.41-13.16,7.74-17.64
		c2.12-7.15,2.74-13.06,3.44-19.79C1055.58,412.56,1055.78,407.68,1055.84,404.15z"/>
</g>
<g id="props">
	<circle class="st27" cx="265.34" cy="609.08" r="29.76"/>
	<circle class="st28" cx="389.84" cy="458.66" r="20.4"/>
	<circle class="st28" cx="551.45" cy="575.47" r="20.4"/>
	<circle class="st28" cx="754.68" cy="467.46" r="20.4"/>
	<circle class="st28" cx="928.29" cy="336.25" r="20.4"/>
	<path class="st29" d="M285.01,582.69l88.43-109.23L285.01,582.69z"/>
	<path class="st29" d="M406.17,470.89l122.88,99.78L406.17,470.89z"/>
	<path class="st29" d="M571.46,571.47l164.13-96.81L571.46,571.47z"/>
	<path class="st29" d="M911.4,347.68L771.67,456.95L911.4,347.68z"/>
	<circle class="st27" cx="390.18" cy="459.43" r="29.76"/>
	<circle class="st27" cx="551.44" cy="575.57" r="29.76"/>
	<circle class="st27" cx="754.94" cy="467.11" r="29.76"/>
	<circle class="st27" cx="928.67" cy="336.56" r="29.76"/>
	<path class="st1" d="M353.16,120.99"/>
	<path class="st30" d="M866,352.19c63.67-37.4,127.33-74.79,191-112.19c-1.43,7.22-3.73,24.18,4,43c4.68,11.39,11.31,19.29,16,24
		C1006.67,322.06,936.33,337.13,866,352.19z"/>
	<circle class="st31" cx="1145.71" cy="251.17" r="89.05"/>
	<path class="st32" d="M1011.37,340.8"/>
	<path class="st32" d="M1041.39,168.98"/>
	<path class="st33" d="M1007.8,174.74"/>
</g>
</svg>
