<svg id="Layer_1" data-name="Layer 1" xmlns="http://www.w3.org/2000/svg" xmlns:xlink="http://www.w3.org/1999/xlink" viewBox="0 0 1150 772.7"><defs><style>.cls-1,.cls-10,.cls-11{fill:none;}.cls-2{fill:url(#linear-gradient);}.cls-3{fill:url(#linear-gradient-2);}.cls-4{fill:#dfffff;}.cls-5{fill:#9be5f1;}.cls-6{fill:url(#linear-gradient-3);}.cls-7{fill:#c67ffb;}.cls-8{fill:url(#linear-gradient-4);}.cls-9{fill:#9d31e2;}.cls-10,.cls-11{stroke:#666;stroke-miterlimit:10;stroke-width:3px;}.cls-11{stroke-dasharray:10.05 10.05;}.cls-12{fill:url(#radial-gradient);}.cls-13{fill:url(#radial-gradient-2);}.cls-14{fill:url(#radial-gradient-3);}.cls-15{fill:url(#radial-gradient-4);}.cls-16{fill:url(#radial-gradient-5);}.cls-17{fill:url(#radial-gradient-6);}.cls-18,.cls-21,.cls-23{isolation:isolate;}.cls-19{clip-path:url(#clip-path);}.cls-20{fill:#008fff;}.cls-21,.cls-40{fill:#fff;}.cls-21,.cls-23{opacity:0.24;}.cls-22{fill:#3daaff;}.cls-23{fill:#0600e9;}.cls-24{fill:#016dfa;}.cls-25{fill:#f55;}.cls-26{fill:#ffacac;}.cls-27{fill:#c44141;}.cls-28{fill:#fffd75;}.cls-29{fill:#d94848;}.cls-30{fill:#ffd275;}.cls-31{clip-path:url(#clip-path-2);}.cls-32{fill:#666;}.cls-33{clip-path:url(#clip-path-3);}.cls-34{fill:#00e912;}.cls-35{clip-path:url(#clip-path-4);}.cls-36{fill:#4d4d4d;}.cls-37{clip-path:url(#clip-path-5);}.cls-38{fill:#ff4e2a;}.cls-39{clip-path:url(#clip-path-6);}.cls-41{clip-path:url(#clip-path-7);}.cls-42{fill:gray;}.cls-43{clip-path:url(#clip-path-8);}.cls-44{fill:#b3b3b3;}.cls-45{clip-path:url(#clip-path-9);}.cls-46{fill:#ff6a4d;}.cls-47{fill:#e63743;}.cls-48{fill:#f0414e;}.cls-49{fill:#ee5d68;}.cls-50{clip-path:url(#clip-path-10);}.cls-51{fill:#ff6b6b;}</style><linearGradient id="linear-gradient" x1="611.35" y1="936.94" x2="791.21" y2="566.49" gradientTransform="translate(-32.8 -297)" gradientUnits="userSpaceOnUse"><stop offset="0"/><stop offset="1" stop-color="#fff" stop-opacity="0"/></linearGradient><linearGradient id="linear-gradient-2" x1="365.26" y1="1021.22" x2="542.57" y2="656.01" gradientTransform="translate(-32.8 -297)" gradientUnits="userSpaceOnUse"><stop offset="0" stop-color="#fff"/><stop offset="1" stop-color="#9de5f1"/></linearGradient><linearGradient id="linear-gradient-3" x1="361.15" y1="964.88" x2="466.14" y2="748.62" gradientTransform="translate(0 -273.7)" gradientUnits="userSpaceOnUse"><stop offset="0"/><stop offset="1" stop-color="#93b5ff" stop-opacity="0"/></linearGradient><linearGradient id="linear-gradient-4" x1="285.23" y1="417" x2="365.92" y2="542.11" gradientTransform="translate(-32.8 -297)" gradientUnits="userSpaceOnUse"><stop offset="0.28" stop-color="#c862f6"/><stop offset="1" stop-color="#93b5ff" stop-opacity="0"/></linearGradient><radialGradient id="radial-gradient" cx="303.76" cy="488.6" r="13.93" gradientTransform="matrix(0.9, -0.28, 0.3, 0.95, -37.3, -177.24)" gradientUnits="userSpaceOnUse"><stop offset="0" stop-color="#f6ff7f"/><stop offset="1" stop-color="#ffa22a"/></radialGradient><radialGradient id="radial-gradient-2" cx="248.49" cy="691.26" r="13.93" xlink:href="#radial-gradient"/><radialGradient id="radial-gradient-3" cx="412.93" cy="666.34" r="13.93" xlink:href="#radial-gradient"/><radialGradient id="radial-gradient-4" cx="325.93" cy="746.61" r="13.93" xlink:href="#radial-gradient"/><radialGradient id="radial-gradient-5" cx="585.76" cy="642.87" r="13.93" xlink:href="#radial-gradient"/><radialGradient id="radial-gradient-6" cx="458.38" cy="529.91" r="13.93" xlink:href="#radial-gradient"/><clipPath id="clip-path" transform="translate(-32.8 -23.3)"><polygon class="cls-1" points="767.1 239.9 773.2 130.1 900.6 186.8 894.5 296.5 767.1 239.9"/></clipPath><clipPath id="clip-path-2" transform="translate(-32.8 -23.3)"><polygon class="cls-1" points="778.2 301.4 776.6 264.1 887.6 315.4 889.3 352.7 778.2 301.4"/></clipPath><clipPath id="clip-path-3" transform="translate(-32.8 -23.3)"><polygon class="cls-1" points="896.4 348.9 895.1 319.6 953.3 346.5 954.6 375.8 896.4 348.9"/></clipPath><clipPath id="clip-path-4" transform="translate(-32.8 -23.3)"><polygon class="cls-1" points="369.5 649.7 554.2 535.3 596.7 560.9 412 675.2 369.5 649.7"/></clipPath><clipPath id="clip-path-5" transform="translate(-32.8 -23.3)"><polygon class="cls-1" points="569.9 636.4 824.6 478.8 870.7 506.5 616 664.1 569.9 636.4"/></clipPath><clipPath id="clip-path-6" transform="translate(-32.8 -23.3)"><polygon class="cls-1" points="536.6 612.2 600.7 572.6 627.5 588.7 563.4 628.3 536.6 612.2"/></clipPath><clipPath id="clip-path-7" transform="translate(-32.8 -23.3)"><polygon class="cls-1" points="240.7 718.6 282.7 695.6 406.3 755.3 364.2 778.4 240.7 718.6"/></clipPath><clipPath id="clip-path-8" transform="translate(-32.8 -23.3)"><polygon class="cls-1" points="372.8 781.5 415.6 756.6 448.2 775.4 405.3 800.3 372.8 781.5"/></clipPath><clipPath id="clip-path-9" transform="translate(-32.8 -23.3)"><polygon class="cls-1" points="961.1 376.2 961.2 336.8 987.1 351.8 987 391.2 961.1 376.2"/></clipPath><clipPath id="clip-path-10" transform="translate(-32.8 -23.3)"><polygon class="cls-1" points="711.1 407.2 705.5 23.9 1011.7 179.9 1017.3 563.2 711.1 407.2"/></clipPath></defs><title>asean-svg-vector</title><polygon class="cls-2" points="1150 397 1117.9 413.2 696.2 626.5 275 413.2 243 397 243.5 396.7 696.2 167.5 696.7 167.5 1149.5 396.7 1150 397"/><polygon class="cls-3" points="897 484.7 865.4 500.7 448.5 711 32.2 500.7 0.5 484.7 1 484.5 448.5 258.5 449 258.5 896.5 484.5 897 484.7"/><path class="cls-4" d="M481.8,734.3v32c-.2,4-.3,8-.5,12q-223.95-114-448-228c-.2-14.2-.3-28.3-.5-42.5h1l-.5.3L65,524Q273.5,629.15,481.8,734.3Z" transform="translate(-32.8 -23.3)"/><path class="cls-5" d="M929.8,508c.2,13.4.3,26.8.5,40.3q-224.55,115.05-449,230c.2-14.7.3-29.3.5-44L898.2,524Z" transform="translate(-32.8 -23.3)"/><path class="cls-6" d="M547.3,472.3q-133.5,68.55-267,137l32,17q133.05-67,266-134" transform="translate(-32.8 -23.3)"/><polygon class="cls-7" points="277.5 604.5 246.3 588.3 246 157.5 277 173.5 277.5 604.5"/><polygon class="cls-8" points="307.5 157.4 276.6 173.5 245.6 157.4 276.6 141.3 307.5 157.4"/><polygon class="cls-9" points="308 157.5 308.5 588.3 277.3 604.5 277 173.5 308 157.5"/><line class="cls-10" x1="308.5" y1="568" x2="313" y2="565.7"/><line class="cls-11" x1="322" y1="561.2" x2="676.2" y2="382.5"/><line class="cls-10" x1="680.7" y1="380.2" x2="685.2" y2="378"/><line class="cls-10" x1="308.5" y1="495" x2="313" y2="492.7"/><line class="cls-11" x1="322" y1="488.2" x2="676.2" y2="309.5"/><line class="cls-10" x1="680.7" y1="307.2" x2="685.2" y2="305"/><line class="cls-10" x1="308.5" y1="422" x2="313" y2="419.7"/><line class="cls-11" x1="322" y1="415.2" x2="676.2" y2="236.5"/><line class="cls-10" x1="680.7" y1="234.2" x2="685.2" y2="232"/><line class="cls-10" x1="308.5" y1="349" x2="313" y2="346.7"/><line class="cls-11" x1="322" y1="342.2" x2="676.2" y2="163.5"/><line class="cls-10" x1="680.7" y1="161.2" x2="685.2" y2="159"/><line class="cls-10" x1="308.5" y1="276" x2="313" y2="273.7"/><line class="cls-11" x1="322" y1="269.2" x2="676.2" y2="90.5"/><line class="cls-10" x1="680.7" y1="88.2" x2="685.2" y2="86"/><line class="cls-10" x1="308.5" y1="203" x2="313" y2="200.7"/><line class="cls-11" x1="322" y1="196.2" x2="676.2" y2="17.5"/><line class="cls-10" x1="680.7" y1="15.2" x2="685.2" y2="13"/><path class="cls-12" d="M396.9,201.7c1.6,5.2-1.8,10.9-7.6,12.7s-11.9-.9-13.5-6.1,1.8-10.9,7.6-12.7S395.2,196.5,396.9,201.7Z" transform="translate(-32.8 -23.3)"/><path class="cls-13" d="M407.9,410.6c1.6,5.2-1.8,10.9-7.6,12.7s-11.9-.9-13.5-6.1,1.8-10.9,7.6-12.7S406.2,405.4,407.9,410.6Z" transform="translate(-32.8 -23.3)"/><path class="cls-14" d="M547.9,340.7c1.6,5.2-1.8,10.9-7.6,12.7s-11.9-.9-13.5-6.1,1.8-10.9,7.6-12.7S546.2,335.5,547.9,340.7Z" transform="translate(-32.8 -23.3)"/><path class="cls-15" d="M493.8,441.7c1.6,5.2-1.8,10.9-7.6,12.7s-11.9-.9-13.5-6.1,1.8-10.9,7.6-12.7S492.2,436.5,493.8,441.7Z" transform="translate(-32.8 -23.3)"/><path class="cls-16" d="M695.8,269.7c1.6,5.2-1.8,10.9-7.6,12.7s-11.9-.9-13.5-6.1,1.8-10.9,7.6-12.7S694.2,264.5,695.8,269.7Z" transform="translate(-32.8 -23.3)"/><path class="cls-17" d="M547.9,197.7c1.6,5.2-1.8,10.9-7.6,12.7s-11.9-.9-13.5-6.1,1.8-10.9,7.6-12.7S546.2,192.5,547.9,197.7Z" transform="translate(-32.8 -23.3)"/><g id="Layer_3" data-name="Layer 3"><g class="cls-18"><g class="cls-19"><path class="cls-20" d="M830.6,256c-19.3-8.6-34.5-33.6-34.3-57.1.2-24.4,16.8-37.9,37.1-30.2a18.94,18.94,0,0,1,2.1.9c19.3,8.6,34.5,33.6,34.3,57.1-.2,24.4-16.8,37.9-37.1,30.2a18.94,18.94,0,0,0-2.1-.9m56-74.8L772.7,138.1l9.2,3.5L781,245.5l113.9,43.1-9.2-3.5.9-103.9" transform="translate(-32.8 -23.3)"/><polyline class="cls-21" points="748.3 222.2 739.1 218.7 748.3 222.2 748.3 222.2"/><polyline class="cls-22" points="749.1 118.3 740 114.8 739.1 218.7 748.3 222.2 749.1 118.3"/><polyline class="cls-23" points="863 161.4 853.8 157.9 853.8 157.9 863 161.4 862.1 265.2 863 161.4"/><polyline class="cls-24" points="863 161.4 853.8 157.9 853 261.8 862.1 265.2 863 161.4"/><path class="cls-25" d="M851.4,197.4c0,.5-.1,1-.1,1.6,1.1.4,2.1.8,3.2,1.2-.2,3.3-1.2,11.9-7.1,16.2a14,14,0,0,1-3.9,1.9,27.69,27.69,0,0,1,2.9,3.3,36.26,36.26,0,0,1,3.6,6.5c1.3,2.9,2,5.2,2.3,6a46.52,46.52,0,0,1,1.8,10.3c-12.6-4.8-25.3-9.6-37.9-14.4,0-.4-.1-1-.1-1.7-.4-.2-.9-.3-1.3-.5h0v-.1a30.34,30.34,0,0,1,1.2-6.9,4.87,4.87,0,0,1,.4-1.1,20.82,20.82,0,0,1,3.1-5.8,10.14,10.14,0,0,1,2.5-2.6,9.37,9.37,0,0,1,3.7-1.6,42.37,42.37,0,0,1-3.8-4.8c-.3-.4-.5-.8-.8-1.2s-.3-.5-.5-.8a38,38,0,0,1-4.5-11.7,32.22,32.22,0,0,1-1-7.7h0c.4.1.7.3,1.1.4h0c.7.3,1.3.5,2,.8v1.7c.2.1.4.1.6.2v-1.7c1,.4,2,.8,3.1,1.2v1.7c.2.1.4.1.6.2v-1.7a28.27,28.27,0,0,0,3.1,1.1v1.7l.6.3v-1.7l3.1,1.2v1.7c.2.1.4.1.6.2v-1.6l3.1,1.2h0v1.7a1.42,1.42,0,0,0,.6.2v-1.6h0l3.1,1.2v1.7c.2.1.4.1.6.2v-1.6l3.1,1.2V195l.6.3v-1.7c1,.4,2,.8,3.1,1.2v1.6c.2.1.4.1.6.2a8.6,8.6,0,0,1,.1-1.6c1,.4,2,.8,3.1,1.2a8.6,8.6,0,0,1-.1,1.6,1.42,1.42,0,0,0,.6.2v-1.6a17.6,17.6,0,0,1,3,1M801,209.5a.78.78,0,0,1-.4-.4,10.43,10.43,0,0,1-.8-2.5c-.2-.8-.2-1.5-.4-2.3l-.3-2.3a17,17,0,0,1-.1-2.2l-.1-2.2.1-2.2c.1-.7.1-1.5.2-2.1l.4-2a27.83,27.83,0,0,1,6.4-13.6,21.4,21.4,0,0,1,11.4-6.8,25.12,25.12,0,0,1,14,1h0a.82.82,0,0,1,.4.6c0,.2-.1.4-.3.4a30.62,30.62,0,0,0-12.6,1.8c-.9.4-1.8.9-2.8,1.3l-2.6,1.6-2.4,1.9-1.1,1.1a11.41,11.41,0,0,0-1.1,1.1,31.5,31.5,0,0,0-6.1,11.8l-.5,1.8-.3,1.8-.4,1.9-.2,2c0,.7-.2,1.3-.2,2v4a7.47,7.47,0,0,0,.3,2h0c.1.4-.1.7-.3.7,0-.2-.1-.2-.2-.2m43.8,49.4c1.3-.5,19.4-9.1,18.9-36.3-.4-24.5-15.5-43.8-17.3-46.1a68.59,68.59,0,0,1,23.2,47.1c.2,4,.3,14.9-5.4,23.8a23.8,23.8,0,0,1-19.4,11.5m-9.3-89.4-2.1-.9c-20.3-7.7-36.9,5.8-37.1,30.2-.2,23.5,15,48.5,34.3,57.1a18,18,0,0,0,2.1.8c20.3,7.7,36.9-5.8,37.1-30.2.2-23.4-15-48.4-34.3-57" transform="translate(-32.8 -23.3)"/><path class="cls-26" d="M831.4,171.8h0a25.12,25.12,0,0,0-14-1,21.4,21.4,0,0,0-11.4,6.8,28.26,28.26,0,0,0-6.4,13.6l-.4,2c-.1.7-.1,1.4-.2,2.1l-.1,2.2.1,2.2a15.48,15.48,0,0,0,.1,2.2l.3,2.3a18.46,18.46,0,0,0,.4,2.3,14.36,14.36,0,0,0,.8,2.5c.1.2.2.4.4.4h.2c.3,0,.4-.3.3-.7h0a12,12,0,0,1-.3-2v-4a13.55,13.55,0,0,1,.2-2l.2-2,.3-1.9c.1-.6.2-1.3.3-1.8l.5-1.8a31.5,31.5,0,0,1,6.1-11.8,11.41,11.41,0,0,1,1.1-1.1l1.1-1.1,2.4-1.9,2.6-1.6c.9-.4,1.8-.9,2.8-1.3a30.62,30.62,0,0,1,12.6-1.8c.2,0,.3-.1.3-.4.1-.1-.1-.3-.3-.4" transform="translate(-32.8 -23.3)"/><path class="cls-27" d="M854.5,200.2c-1.1-.4-2.1-.8-3.2-1.2-.4,3.9-1.8,10.9-6.9,14.6a14,14,0,0,1-3.9,1.9,27.69,27.69,0,0,1,2.9,3.3,36.26,36.26,0,0,1,3.6,6.5,59,59,0,0,1,2.3,6,46.52,46.52,0,0,1,1.8,10.3c-1-.4-2-.8-3.1-1.2a35.61,35.61,0,0,0-1.6-11.5,49.51,49.51,0,0,0-2.9-7.2,52,52,0,0,0-2.6-4.7,21.87,21.87,0,0,0-1.4-2,30,30,0,0,0,2.6-2.1,17.79,17.79,0,0,0,3.9-5.4,22.54,22.54,0,0,0,1.7-5.8,29.78,29.78,0,0,0,.5-3.9,1.42,1.42,0,0,0-.6-.2,25,25,0,0,1-2.5,10.1,21.2,21.2,0,0,1-2.2,3.2,22.26,22.26,0,0,1-4,3.8c.5.8,1.3,2,2.1,3.4,1.1,1.9,1.7,2.9,2.4,4.4.5,1.1.8,2,1.4,3.5a20.23,20.23,0,0,1,1,3.2c0,.1.4,1.5.8,3.1a39,39,0,0,1,.7,7.8c-1-.4-2-.8-3.1-1.2-.1-2.7-.3-5.1-.5-7a28.59,28.59,0,0,0-.6-3.5,63.7,63.7,0,0,0-2.1-7.1c-.7-1.8-1.4-3.4-2-4.6-.4-.9-.8-1.7-1.1-2.3a25.86,25.86,0,0,0,3-4.2,29.23,29.23,0,0,0,1.6-3.6,35.82,35.82,0,0,0,1.6-6,37.93,37.93,0,0,0,.4-4.1c-.2-.1-.4-.1-.6-.2a32.94,32.94,0,0,1-1.6,9,24,24,0,0,1-5,9,67.75,67.75,0,0,1,3.8,9,52.28,52.28,0,0,1,2.5,15.5c-1-.4-2-.8-3.1-1.2a61.39,61.39,0,0,0-.4-9.2c-.3-2.5-.7-4.4-1-6.1-.5-2.5-.8-3.6-1-4.3a25.51,25.51,0,0,0-1.7-4.1,10.76,10.76,0,0,0,1.4-2.1,19.67,19.67,0,0,0,1.7-5.4,44.72,44.72,0,0,0,1-5.7c.2-1.5.3-3.4.4-5.6l-.6-.3c-.1,2.4-.3,4.5-.5,6.3a44.8,44.8,0,0,1-1.1,6.2,26.79,26.79,0,0,1-2.8,6.3,39.38,39.38,0,0,1,2.1,6,55.15,55.15,0,0,1,1.8,11.2c.1,1.6.3,3.9.3,6.6-1-.4-2-.8-3.1-1.2.1-4.3.1-7.9-.1-10.7a49.74,49.74,0,0,0-1-8.7,34.63,34.63,0,0,0-.9-3.5,18,18,0,0,0,1.3-3.8c.3-1.3.4-2.5.7-4.9a41.65,41.65,0,0,0,.3-5.2v-5.7c-.2-.1-.4-.1-.6-.2,0,4-.2,7.2-.4,9.5a36.86,36.86,0,0,1-.7,5.1,38.7,38.7,0,0,1-1.3,5c.3,1.2.7,2.9,1,4.8a74.41,74.41,0,0,1,.8,8.5c.1,2.6.2,5.9.1,9.6-1-.4-2-.8-3.1-1.2l.2-22.1.2-20.4a1.42,1.42,0,0,0-.6-.2l-.2,20.4-.2,22.1c-1-.4-2-.8-3.1-1.2-.1-3.9.1-7.1.2-9.5a44.93,44.93,0,0,1,1-7.8c.4-1.7.8-3,1.1-4-.4-1.5-.8-3.6-1.2-6-.2-1.5-.4-3.2-.6-5.6a92.88,92.88,0,0,1-.2-9.7c-.2-.1-.4-.1-.6-.2v5.7a46.78,46.78,0,0,0,.3,5.5,43.6,43.6,0,0,0,.6,5.4c.4,2,.9,3.6,1.2,4.7a26.78,26.78,0,0,0-1,2.8,36.47,36.47,0,0,0-1.1,7.9c-.2,2.7-.3,6.3-.2,10.6l-2.4-.9a1.42,1.42,0,0,0-.6-.2v-.6c0-1.6.1-3,.2-4.1.2-2.1.4-3.7.5-4.8s.2-1.8.3-2.3a20.58,20.58,0,0,1,1.2-4.1c0-.1,0-.1.1-.2a23.48,23.48,0,0,1,2.2-4.3,47.05,47.05,0,0,1-3.7-15.4c-.2-1.9-.3-4.1-.4-6.6l-.6-.3a48.49,48.49,0,0,0,.3,5.8,60.42,60.42,0,0,0,.9,6.4,41.39,41.39,0,0,0,1.6,6.7,24.37,24.37,0,0,0,1.4,3.1,11.57,11.57,0,0,0-1.7,2.9,30.61,30.61,0,0,0-1.1,3.5,34.34,34.34,0,0,0-1.1,5.3,52,52,0,0,0-.5,8.8c-.7-.3-1.3-.5-2-.8h0c-.3-.1-.7-.3-1.1-.4h0a34.22,34.22,0,0,1,2.7-13.5,22.16,22.16,0,0,1,3.9-6.1,53.05,53.05,0,0,1-4.8-12.7,50,50,0,0,1-1.4-10.1c-.2-.1-.4-.1-.6-.2.1,1.7.2,3.2.4,4.4a70,70,0,0,0,1.5,7.2,45.86,45.86,0,0,0,1.5,4.8,40.2,40.2,0,0,0,2.9,6.4c-.3.4-.7.8-1.1,1.4a24.07,24.07,0,0,0-2,3.1,24.46,24.46,0,0,0-2.2,5.5,21,21,0,0,0-.6,3.1,47.72,47.72,0,0,0-.7,6.6c-1-.4-1.9-.7-2.9-1.1-.1,0-.1,0-.2-.1h0a33.57,33.57,0,0,1,.8-7.3,25.16,25.16,0,0,1,.8-2.5c0-.1.1-.2.1-.3a22.56,22.56,0,0,1,1.6-3.4,17.54,17.54,0,0,1,5.4-5.5h0a8.34,8.34,0,0,0-.8-1.2,46.5,46.5,0,0,1-3.2-5.7,44.4,44.4,0,0,1-2.1-4.9,32.83,32.83,0,0,1-1.8-7,31.3,31.3,0,0,1-.5-5c-.2-.1-.4-.1-.6-.2a36.64,36.64,0,0,0,.4,4.2,44.15,44.15,0,0,0,1.6,7.1,44.71,44.71,0,0,0,3.8,8.3c1,1.7,1.9,3.1,2.6,4.1a7.57,7.57,0,0,0-1.4,1,13.18,13.18,0,0,0-2.6,2.7,19.37,19.37,0,0,0-3,5,26.21,26.21,0,0,0-1.8,10.2c-.6-.2-1.2-.5-1.8-.7a8.12,8.12,0,0,0,.1,1.7c12.6,4.8,25.3,9.6,37.9,14.4a41.32,41.32,0,0,0-1.8-10.3,51,51,0,0,0-2.3-6,33.15,33.15,0,0,0-3.6-6.5,27.69,27.69,0,0,0-2.9-3.3,11.71,11.71,0,0,0,3.9-1.9c5.7-4.2,6.7-12.9,6.9-16.2" transform="translate(-32.8 -23.3)"/><path class="cls-28" d="M822.6,186.5v1.7a49.09,49.09,0,0,0,1.4,10.1,57.72,57.72,0,0,0,4.8,12.7,22.16,22.16,0,0,0-3.9,6.1,34.54,34.54,0,0,0-2.7,13.5h0a34.22,34.22,0,0,1,2.7-13.5,22.16,22.16,0,0,1,3.9-6.1,54.2,54.2,0,0,1-4.4-11.1,52.9,52.9,0,0,1-1.8-13.4m3,1.2a28.27,28.27,0,0,0-3.1-1.1l1.1.4a56.3,56.3,0,0,0,1.1,11.1,62,62,0,0,0,4.2,13,35,35,0,0,0-3.6,7.7,44.54,44.54,0,0,0-2.1,12.3c.7.3,1.3.5,2,.8a52,52,0,0,1,.5-8.8c.4-2.3.8-3.9,1.1-5.3.6-2.1.9-3,1.1-3.5a17.11,17.11,0,0,1,1.7-2.9,24.37,24.37,0,0,1-1.4-3.1,32,32,0,0,1-1.6-6.7c-.2-1.4-.6-3.5-.9-6.4-.1-1.6-.3-3.6-.3-5.8a5.24,5.24,0,0,0,.2-1.7" transform="translate(-32.8 -23.3)"/><path class="cls-28" d="M851.4,197.4c-1-.4-2-.8-3.1-1.2v1.6a29.78,29.78,0,0,1-.5,3.9,22.54,22.54,0,0,1-1.7,5.8,19.21,19.21,0,0,1-3.9,5.4,13.18,13.18,0,0,1-2.6,2.1c.4.5.8,1.2,1.4,2a40.24,40.24,0,0,1,2.6,4.7,49.51,49.51,0,0,1,2.9,7.2,35.61,35.61,0,0,1,1.6,11.5c1,.4,2,.8,3.1,1.2a41.32,41.32,0,0,0-1.8-10.3,51,51,0,0,0-2.3-6,33.15,33.15,0,0,0-3.6-6.5,27.69,27.69,0,0,0-2.9-3.3,11.71,11.71,0,0,0,3.9-1.9c5.1-3.7,6.5-10.6,6.9-14.6a8.53,8.53,0,0,1,0-1.6" transform="translate(-32.8 -23.3)"/><path class="cls-28" d="M847.7,196c-1-.4-2-.8-3.1-1.2a8.08,8.08,0,0,1-.1,1.6c-.1,1.6-.3,3-.4,4.1a31.4,31.4,0,0,1-1.6,6,20.11,20.11,0,0,1-1.6,3.6,17.58,17.58,0,0,1-3,4.2c.3.5.6,1.3,1.1,2.3.6,1.2,1.3,2.8,2,4.6a57.83,57.83,0,0,1,2.1,7.1c.3,1.4.4,2.5.6,3.5a45.83,45.83,0,0,1,.5,7c1,.4,2,.8,3.1,1.2a38,38,0,0,0-.7-7.8,19.54,19.54,0,0,0-.8-3.1c-.4-1.3-.7-2.2-1-3.2a31.74,31.74,0,0,0-1.4-3.5c-.7-1.5-1.3-2.5-2.4-4.4-.9-1.4-1.6-2.6-2.1-3.4a19.38,19.38,0,0,0,4-3.8,21.2,21.2,0,0,0,2.2-3.2,25.44,25.44,0,0,0,2.5-10.1,7.08,7.08,0,0,0,.1-1.5" transform="translate(-32.8 -23.3)"/><path class="cls-28" d="M844.1,194.6c-1-.4-2-.8-3.1-1.2v1.7a41.83,41.83,0,0,1-.4,5.6,38.75,38.75,0,0,1-1,5.7,24.74,24.74,0,0,1-1.7,5.4,15.13,15.13,0,0,1-1.4,2.1,36.9,36.9,0,0,1,1.7,4.1,35.7,35.7,0,0,1,1,4.3c.3,1.7.7,3.6,1,6.1a61.39,61.39,0,0,1,.4,9.2c1,.4,2,.8,3.1,1.2a51.39,51.39,0,0,0-2.5-15.5,56.65,56.65,0,0,0-3.8-9,24,24,0,0,0,5-9,32.94,32.94,0,0,0,1.6-9,9.15,9.15,0,0,1,.1-1.7" transform="translate(-32.8 -23.3)"/><path class="cls-28" d="M840.4,193.2l-3.1-1.2v7.3a39.33,39.33,0,0,1-.4,5.2,34,34,0,0,1-.6,4.9,18,18,0,0,1-1.3,3.8,28.74,28.74,0,0,1,.9,3.5,49.74,49.74,0,0,1,1,8.7c.1,2.8.2,6.5.1,10.7,1,.4,2,.8,3.1,1.2a58.64,58.64,0,0,0-.3-6.6,55.15,55.15,0,0,0-1.8-11.2,43.81,43.81,0,0,0-2.1-6,23.25,23.25,0,0,0,2.8-6.3,35.17,35.17,0,0,0,1.1-6.2c.2-1.8.4-3.9.5-6.3,0-.3.1-.9.1-1.5" transform="translate(-32.8 -23.3)"/><path class="cls-28" d="M836.7,191.8l-3.1-1.2h0v1.6l-.2,20.4-.2,22.1c1,.4,2,.8,3.1,1.2.1-3.8.1-7.1-.1-9.6-.3-4.9-.7-7.6-.8-8.5-.4-2-.7-3.6-1-4.8a38.7,38.7,0,0,0,1.3-5,39.28,39.28,0,0,0,.7-5.1c.2-2.3.4-5.4.4-9.5a7.59,7.59,0,0,1-.1-1.6" transform="translate(-32.8 -23.3)"/><path class="cls-28" d="M816.1,220.9a25.69,25.69,0,0,0-1.2,6.9,27.81,27.81,0,0,1,1.2-6.9m5.1-17a8.34,8.34,0,0,0,.8,1.2,42.37,42.37,0,0,0,3.8,4.8h0a33.23,33.23,0,0,1-4.6-6m-6-20.2h0m3.1,1.2c-.7-.3-1.3-.5-2-.8a37.15,37.15,0,0,0,2.2,12.3,42.06,42.06,0,0,0,7.6,13.6,14.1,14.1,0,0,0-4.7,3c-3.2,3.3-4.2,7.8-4.7,10a48.81,48.81,0,0,0-.7,5.3,6.12,6.12,0,0,1-1.2-.5h0c.4.2.9.3,1.3.5.6.2,1.2.5,1.8.7a26.21,26.21,0,0,1,1.8-10.2,19.37,19.37,0,0,1,3-5,16.87,16.87,0,0,1,2.6-2.7c.5-.4,1-.7,1.4-1-.7-1-1.6-2.4-2.6-4.1a48.47,48.47,0,0,1-3.8-8.3,35.23,35.23,0,0,1-1.6-7.1c-.2-1.6-.3-3-.4-4.2v-1.5" transform="translate(-32.8 -23.3)"/><path class="cls-28" d="M820.2,219.3c0,.1-.1.2-.1.3a17.82,17.82,0,0,0-.8,2.5,33.57,33.57,0,0,0-.8,7.3h0a26.44,26.44,0,0,1,.7-6.4,37.23,37.23,0,0,1,1-3.7m7.1-8.8h0m-7.9-18.8a40.12,40.12,0,0,0,1.8,7c.8,2.2,1.9,4.5,2.1,4.9a46.5,46.5,0,0,0,3.2,5.7c-.9-1.5-2-3.3-3-5.4a56.48,56.48,0,0,1-3.2-8,40,40,0,0,1-.9-4.2m2.6-5.4c-1-.4-2-.8-3.1-1.2l1.1.4a39.08,39.08,0,0,0,.6,8.5,47.52,47.52,0,0,0,6.8,16.4,17.67,17.67,0,0,0-5.6,7.1,29.37,29.37,0,0,0-2.3,12.1l-.9-.3c1,.4,1.9.7,2.9,1.1a47.72,47.72,0,0,1,.7-6.6c.2-1,.3-1.9.6-3.1a28.9,28.9,0,0,1,2.2-5.5c.7-1.3,1.5-2.3,2-3.1a9.77,9.77,0,0,1,1.1-1.4c-.8-1.6-1.9-3.8-2.9-6.4a45.86,45.86,0,0,1-1.5-4.8,70,70,0,0,1-1.5-7.2c-.2-1.2-.3-2.7-.4-4.4a4.4,4.4,0,0,0,.2-1.6" transform="translate(-32.8 -23.3)"/><path class="cls-28" d="M825.9,231.5v0m4.5-19.9a23.48,23.48,0,0,0-2.2,4.3c0,.1,0,.1-.1.2.2-.6.5-1.1.7-1.6.4-.7.9-1.8,1.6-2.9m-4.1-23.7v1.7a61.54,61.54,0,0,0,.4,6.6,47.14,47.14,0,0,0,1,7,48.87,48.87,0,0,0,2.7,8.4,60.63,60.63,0,0,1-2.7-8.6,78.34,78.34,0,0,1-1.2-8.9c-.2-2.6-.2-4.7-.2-6.2m3,1.2-3.1-1.2,1.1.4c0,2.4,0,4.5.1,5.9a58.27,58.27,0,0,0,1.4,12c.6,2.3,1.2,4.2,1.6,5.4a28.66,28.66,0,0,0-2.2,6.4,53,53,0,0,0-1.2,9.2c-.2,2.1-.3,4-.3,5.2-.1,0-.2-.1-.3-.1l2.4.9c-.1-4.3.1-7.9.2-10.6a37.44,37.44,0,0,1,1.1-7.9,17.31,17.31,0,0,1,1-2.8,34.63,34.63,0,0,1-1.2-4.7,43.6,43.6,0,0,1-.6-5.4c-.1-1.8-.3-3.4-.3-5.5v-5.7a3.26,3.26,0,0,0,.3-1.5" transform="translate(-32.8 -23.3)"/><path class="cls-28" d="M833,190.4l-3.1-1.2v1.6c0,4,.1,7.3.2,9.7s.3,4,.6,5.6c.4,2.4.8,4.5,1.2,6-.3,1-.7,2.3-1.1,4a43.19,43.19,0,0,0-1,7.8,90.33,90.33,0,0,0-.2,9.5c1,.4,2,.8,3.1,1.2l.2-22.1.2-20.4-.1-1.7m0,.1h0" transform="translate(-32.8 -23.3)"/><path class="cls-29" d="M846.5,176.5c1.8,2.3,16.9,21.6,17.3,46.1.5,27.2-17.7,35.8-18.9,36.3a24,24,0,0,0,19.5-11.5c5.6-9,5.5-19.8,5.4-23.8a65.74,65.74,0,0,0-6.5-25,68.38,68.38,0,0,0-16.8-22.1" transform="translate(-32.8 -23.3)"/><path class="cls-30" d="M816.3,184.1c-.4-.1-.7-.3-1.1-.4h0a38.41,38.41,0,0,0,1,7.7,41.94,41.94,0,0,0,4.5,11.7,9.22,9.22,0,0,0,.5.8,37.13,37.13,0,0,0,4.6,6h0a9.37,9.37,0,0,0-3.7,1.6,12.17,12.17,0,0,0-2.5,2.6,22.28,22.28,0,0,0-3.1,5.8c-.1.4-.3.7-.4,1.1a27.07,27.07,0,0,0-1.2,6.9v.1h0c.4.2.8.3,1.2.5a32.24,32.24,0,0,1,.7-5.3c.5-2.3,1.5-6.7,4.7-10a11.42,11.42,0,0,1,4.6-3,42.06,42.06,0,0,1-7.6-13.6,38.92,38.92,0,0,1-2.2-12.5h0" transform="translate(-32.8 -23.3)"/><path class="cls-30" d="M820,185.5l-1.1-.4v1.7a31.3,31.3,0,0,0,.5,5,38.48,38.48,0,0,0,.9,4.1,43.28,43.28,0,0,0,3.2,8,50.09,50.09,0,0,0,3,5.4c.3.4.5.8.8,1.2h-.1a16.49,16.49,0,0,0-5.4,5.5,22.56,22.56,0,0,0-1.6,3.4,15.51,15.51,0,0,0-1,3.6,32.65,32.65,0,0,0-.7,6.4h0c.1,0,.1,0,.2.1l.9.3a29.64,29.64,0,0,1,2.3-12.1,17,17,0,0,1,5.6-7.1,47.52,47.52,0,0,1-6.8-16.4,36.61,36.61,0,0,1-.7-8.7" transform="translate(-32.8 -23.3)"/><path class="cls-30" d="M823.6,186.9l-1.1-.4a50.71,50.71,0,0,0,1.9,13.5,59.37,59.37,0,0,0,4.4,11.1,22.16,22.16,0,0,0-3.9,6.1,34.54,34.54,0,0,0-2.7,13.5h0c.4.1.7.3,1.1.4h0a44.54,44.54,0,0,1,2.1-12.3,35,35,0,0,1,3.6-7.7,62,62,0,0,1-4.2-13,59.34,59.34,0,0,1-1.2-11.2" transform="translate(-32.8 -23.3)"/><path class="cls-30" d="M827.4,188.3l-1.1-.4c0,1.5.1,3.6.3,6.2a48.54,48.54,0,0,0,1.2,8.9,60.63,60.63,0,0,0,2.7,8.6,30.81,30.81,0,0,0-1.6,2.9c-.2.5-.5,1-.7,1.6a25.61,25.61,0,0,0-1.2,4.1,18.83,18.83,0,0,0-.3,2.3c-.1,1.1-.3,2.7-.5,4.8-.1,1.1-.1,2.5-.2,4.1v.6a1.42,1.42,0,0,0,.6.2c.1,0,.2.1.3.1,0-1.3.1-3.1.3-5.2a55.77,55.77,0,0,1,1.2-9.2,30.45,30.45,0,0,1,2.2-6.4c-.4-1.2-1.1-3.1-1.7-5.4a52.12,52.12,0,0,1-1.4-12,49.66,49.66,0,0,1-.1-5.8" transform="translate(-32.8 -23.3)"/></g></g></g><g id="Layer_4" data-name="Layer 4"><g class="cls-18"><g class="cls-31"><path class="cls-32" d="M785.8,293.4l2.1-10.2,4.1,12.7-6.2-2.5m3.8-17-4.8-1.9-6.6,26.9,5.5,2.2,1.2-5.6,9,3.6,2.3,7,5.5,2.2-12.1-34.4" transform="translate(-32.8 -23.3)"/><path class="cls-32" d="M810.9,284.5c-.3-.1-.5-.2-.8-.3a9.33,9.33,0,0,0-4.7-.8,4.54,4.54,0,0,0-3,1.7,6.82,6.82,0,0,0-.8,4c.3,3.2,1.9,6.3,4.9,9.3a48.5,48.5,0,0,0,4.4,3.8,30.27,30.27,0,0,1,3.9,3.5,5.34,5.34,0,0,1,1.3,3.1c.1,1.1-.2,1.8-.8,2.1a3.52,3.52,0,0,1-2.8-.2l-.6-.3a7.78,7.78,0,0,1-4.8-6.8l-5.2-2a14.47,14.47,0,0,0,1.7,5.7,20.5,20.5,0,0,0,3.9,5,16.09,16.09,0,0,0,4.5,3,3,3,0,0,1,.8.4c2.8,1.1,4.9,1.2,6.4.4s2.1-2.6,1.9-5.3a13.13,13.13,0,0,0-2.5-6.7,29.79,29.79,0,0,0-6.7-6.5,27.21,27.21,0,0,1-3.8-3.3,5.34,5.34,0,0,1-1.5-3c-.1-1.1.2-1.8.8-2.1s1.6-.3,2.8.2a.76.76,0,0,1,.4.2,7.29,7.29,0,0,1,2.7,2.2,7,7,0,0,1,1.4,3.7l5.1,2a15.83,15.83,0,0,0-5.1-10,8.51,8.51,0,0,0-3.8-3" transform="translate(-32.8 -23.3)"/><polyline class="cls-32" points="806.6 272.9 790 266.3 792.6 296.8 809.3 303.4 808.9 298.4 797.3 293.8 796.6 285.6 806.5 289.5 806 284.6 796.2 280.7 795.5 273.4 807.1 278 806.6 272.9"/><path class="cls-32" d="M850.6,319.1l2.1-10.2,4.1,12.7-6.2-2.5m3.8-17-4.8-1.9L843,327.1l5.5,2.2,1.2-5.6,9,3.6,2.3,7,5.5,2.2-12.1-34.4" transform="translate(-32.8 -23.3)"/><polyline class="cls-32" points="853.5 291.5 848.4 289.5 850.1 309.6 838.4 285.5 833.2 283.4 835.9 314 841 316 839.3 295.9 851 320 856.1 322 853.5 291.5"/></g></g><g class="cls-18"><g class="cls-33"><polyline class="cls-34" points="872.7 308.1 867.7 306.1 868.4 313.4 863 311.3 863.5 316.9 868.8 319 869.5 326.5 874.5 328.5 873.8 321 879.1 323.1 878.7 317.5 873.3 315.4 872.7 308.1"/><path class="cls-34" d="M920.8,332.5c-.3-.1-.6-.3-.9-.4a6.73,6.73,0,0,0-3.8-.6,3.38,3.38,0,0,0-2.5,1.6,6.28,6.28,0,0,0-.7,3.5l5.3,2.1a1.51,1.51,0,0,1,.6-1.6,1.9,1.9,0,0,1,1.8,0,.35.35,0,0,1,.2.1,4,4,0,0,1,1.8,1.6,5.81,5.81,0,0,1,.9,2.5q.3,3.6-2.7,2.4l-2.5-1,.4,4.8,2.6,1c.1,0,.2.1.3.1a5.1,5.1,0,0,1,2.1,1.7,6.15,6.15,0,0,1,1.1,3.3,2.25,2.25,0,0,1-.6,2.1,2.16,2.16,0,0,1-2.1.1c-.1,0-.1-.1-.2-.1a5.21,5.21,0,0,1-2-1.7,4.71,4.71,0,0,1-1-2.6l-5.3-2.1a11.16,11.16,0,0,0,1.4,4.6,13.83,13.83,0,0,0,3.2,4.1,15,15,0,0,0,3.6,2.4l.6.3c2.6,1,4.6,1.1,6,.2s2-2.6,1.8-5.1a11.64,11.64,0,0,0-4.5-8.1,3.2,3.2,0,0,0,2.4-1.6,4.93,4.93,0,0,0,.6-3,12,12,0,0,0-2.7-6.7,14.23,14.23,0,0,0-5.2-3.9" transform="translate(-32.8 -23.3)"/><path class="cls-34" d="M949.3,368.2a4,4,0,0,1-1.2-1.1,3.23,3.23,0,0,1-.6-1.8l-.1-1.6a2.65,2.65,0,0,1,.3-1.4,1,1,0,0,1,1.2-.1.1.1,0,0,1,.1.1,2.54,2.54,0,0,1,1.2,1.1,4.78,4.78,0,0,1,.6,1.8l.2,2c-.1,1.1-.6,1.5-1.7,1h0m-.3-9.3c-.2-.1-.3-.1-.5-.2-1.5-.6-2.7-.6-3.6.1a4,4,0,0,0-1,3.6l.1,1.4a10.79,10.79,0,0,0,1.8,4.9,9.43,9.43,0,0,0,3.4,2.9c.1.1.3.1.4.2,1.6.6,2.8.6,3.6-.1a4,4,0,0,0,1-3.6l-.1-1.4a10,10,0,0,0-1.8-4.9,7.15,7.15,0,0,0-3.3-2.9m-2.7-13.5-9.2,17.5,2.6,2.5,9.2-17.5-2.6-2.5m-9.3,2.7a2.54,2.54,0,0,1-1.2-1.1,4.78,4.78,0,0,1-.6-1.8l-.1-1.4a1.71,1.71,0,0,1,.3-1.5,1,1,0,0,1,1.2-.1.1.1,0,0,1,.1.1,2.54,2.54,0,0,1,1.2,1.1,4.78,4.78,0,0,1,.6,1.8l.1,1.1c.2,1.7-.3,2.3-1.4,1.9-.1-.1-.1-.1-.2-.1m-.3-9.3c-.1-.1-.3-.1-.5-.2-1.6-.6-2.7-.6-3.6.1a4,4,0,0,0-1,3.6l.1,1.4a10.38,10.38,0,0,0,1.8,4.9,9.43,9.43,0,0,0,3.4,2.9c.1.1.3.1.4.2,1.6.6,2.7.6,3.6-.1s1.1-1.9,1-3.6l-.1-1.4a10.66,10.66,0,0,0-1.7-4.9,7.93,7.93,0,0,0-3.4-2.9" transform="translate(-32.8 -23.3)"/></g></g><g class="cls-18"><g class="cls-35"><path class="cls-36" d="M395.6,653.4l-5.4-7.3,11.1,4.5-5.7,2.8m24.4-1.5-33.5-12.1-6,3,14.1,21.9,6.8-3.4-2.9-4,8.7-4.4,6,2.4,6.8-3.4" transform="translate(-32.8 -23.3)"/><path class="cls-36" d="M424.4,628.4a12.34,12.34,0,0,0-4.3-1.6,17.81,17.81,0,0,0-6.1-.1,21,21,0,0,0-6,1.9,13.3,13.3,0,0,0-4.4,3.3,4.81,4.81,0,0,0-1.3,3.5,4.67,4.67,0,0,0,2.2,3.1,2.09,2.09,0,0,0,.6.4c2.6,1.6,6.2,2,10.7,1.5a55.08,55.08,0,0,0,5.5-1,23.39,23.39,0,0,1,4.9-.7,4.41,4.41,0,0,1,2.6.7c.1.1.2.1.3.2.7.5,1,1.1.8,1.7A3.24,3.24,0,0,1,428,643a10.12,10.12,0,0,1-4.5,1.2,7,7,0,0,1-3.3-1c-.2-.1-.4-.3-.6-.4l-6.4,3.2.9.6a17,17,0,0,0,4.6,1.8,19.38,19.38,0,0,0,6.8,0,22.59,22.59,0,0,0,6.8-2.2c3-1.5,4.8-3.2,5.4-4.9s-.2-3.3-2.3-4.8c-.2-.2-.5-.3-.7-.5-2.5-1.5-5.7-2.1-9.7-1.7-1.8.2-3.8.5-6.2,1a28,28,0,0,1-5.4.8,6,6,0,0,1-2.6-.5c-.1,0-.1-.1-.2-.1a1.45,1.45,0,0,1-.7-1.7,3.29,3.29,0,0,1,2-1.8,7.19,7.19,0,0,1,3.5-.8,5.38,5.38,0,0,1,2.8.8c.1.1.3.2.4.3l6.3-3.2a.67.67,0,0,0-.5-.7" transform="translate(-32.8 -23.3)"/><polyline class="cls-36" points="406.8 589.7 388.6 598.9 412.3 615.9 430.5 606.7 426.1 603.5 414.3 609.5 408.6 605.4 418.6 600.4 414.4 597.3 404.4 602.4 399.4 598.8 411.2 592.8 406.8 589.7"/><path class="cls-36" d="M464.8,618.4l-5.4-7.3,11.1,4.5-5.7,2.8m24.5-1.5-33.5-12.1-6,3,14.1,21.9,6.8-3.4-2.9-3.9,8.7-4.4,6,2.4,6.8-3.5" transform="translate(-32.8 -23.3)"/><polyline class="cls-36" points="456.7 564.4 450.3 567.6 465.1 578.2 441 572.4 434.6 575.6 458.4 592.6 464.7 589.4 450 578.8 474.1 584.7 480.4 581.5 456.7 564.4"/><path class="cls-36" d="M532.1,575.7a17.77,17.77,0,0,0-9.2-2.7,22,22,0,0,0-9.7,2.4,9,9,0,0,0-4.5,4,5.31,5.31,0,0,0,.1,4.9,14.06,14.06,0,0,0,4.8,5.1l2.1,1.5c.4.2.7.5,1.1.7a23.59,23.59,0,0,0,10.2,3.3,20.87,20.87,0,0,0,11.1-2.1,18.52,18.52,0,0,0,5.3-3.8,5.91,5.91,0,0,0,1.9-3.9l-9.8-7-10.8,5.5,3.9,2.8,4.4-2.2,3.7,2.6c-.2.9-1,1.8-2.7,2.6a9,9,0,0,1-6,.9,15.85,15.85,0,0,1-5-2,16.29,16.29,0,0,1-1.7-1.1l-1.4-1c-2.3-1.6-3.5-3.1-3.9-4.4s.3-2.4,1.9-3.2a8.09,8.09,0,0,1,3.9-1,9.22,9.22,0,0,1,4.2,1.3l6.1-3.2" transform="translate(-32.8 -23.3)"/><path class="cls-36" d="M553.7,578.9l-14.9-10.7,2.1-1.1a9.58,9.58,0,0,1,6-.9,14.65,14.65,0,0,1,5.2,2,13,13,0,0,1,1.5,1l1,.7c2.3,1.7,3.5,3.1,3.7,4.5s-.6,2.5-2.5,3.4l-2.1,1.1m5-13.9a23.69,23.69,0,0,0-6.1-2.5,26.57,26.57,0,0,0-8.4-.7,19.65,19.65,0,0,0-7.7,2.2l-8.5,4.3,23.8,17,8.7-4.4a10.9,10.9,0,0,0,4.7-4.2,5.71,5.71,0,0,0,.3-5.1,11.58,11.58,0,0,0-4.3-5l-1.1-.8a10,10,0,0,0-1.4-.8" transform="translate(-32.8 -23.3)"/><path class="cls-36" d="M569.6,561l-6.9-4.9,4.2-2.1a6.82,6.82,0,0,1,3.7-.7,8.08,8.08,0,0,1,3.1,1,1,1,0,0,1,.5.4c1,.7,1.5,1.5,1.4,2.2s-.8,1.4-2,2l-4,2.1m10.3-10.2a17,17,0,0,0-4.6-1.8,17.64,17.64,0,0,0-6.5-.2,21.6,21.6,0,0,0-6.4,2l-10.5,5.3,23.8,17,6.4-3.2-8.1-5.8,4.1-2c3.2-1.6,5-3.4,5.5-5.3s-.5-3.7-2.8-5.4l-.9-.6" transform="translate(-32.8 -23.3)"/></g></g><g class="cls-18"><g class="cls-37"><polyline class="cls-38" points="567.6 615.9 558.9 620.3 543.9 609.5 538.9 612 557.4 625.2 571 618.4 567.6 615.9"/><polyline class="cls-38" points="559.9 601.4 554.9 603.9 573.4 617.1 578.4 614.6 559.9 601.4"/><polyline class="cls-38" points="580.5 590.9 575.6 593.4 587.1 601.7 568.3 597.1 563.3 599.6 581.8 612.9 586.8 610.4 575.3 602.1 594.1 606.7 599 604.2 580.5 590.9"/><polyline class="cls-38" points="597.8 582.2 583.6 589.3 602.2 602.6 616.3 595.4 612.9 593 603.7 597.6 599.3 594.5 607.1 590.5 603.8 588.2 596 592.1 592 589.3 601.3 584.6 597.8 582.2"/><path class="cls-38" d="M650.3,609.7l-4.2-5.7,8.7,3.5-4.5,2.2m19.1-1.2-26.1-9.4-4.7,2.4,11,17.1,5.3-2.7-2.3-3.1,6.8-3.4,4.7,1.9,5.3-2.8" transform="translate(-32.8 -23.3)"/><path class="cls-38" d="M665.8,598.1l-5.1-3.7,3.1-1.6a4.76,4.76,0,0,1,2.8-.6,5.68,5.68,0,0,1,2.2.7c.1.1.3.2.4.3.8.6,1.2,1.1,1.2,1.7s-.5,1.1-1.5,1.6l-3.1,1.6m7.3-8.1a10.32,10.32,0,0,0-5.5-1.5,16.63,16.63,0,0,0-7.2,1.8l-8.1,4.1,18.5,13.3,5-2.5-6.5-4.7,2.7-1.4,10.2,2.8,5.3-2.7-.2-.1-11.8-3.2a3.49,3.49,0,0,0,.7-2.8,5.55,5.55,0,0,0-2.3-2.7c-.3-.1-.5-.3-.8-.4" transform="translate(-32.8 -23.3)"/><path class="cls-38" d="M691.9,584.9l-5.1-3.7,3.1-1.6a4.76,4.76,0,0,1,2.8-.6,5.68,5.68,0,0,1,2.2.7c.1.1.3.2.4.3.8.6,1.2,1.1,1.2,1.7s-.5,1.1-1.5,1.5l-3.1,1.7m7.3-8.1a10.32,10.32,0,0,0-5.5-1.5,16.3,16.3,0,0,0-7.2,1.8l-8.1,4.1,18.5,13.3,5-2.5-6.5-4.7,2.7-1.4,10.2,2.9,5.3-2.7-.2-.1-11.8-3.2a3.49,3.49,0,0,0,.7-2.8,5.55,5.55,0,0,0-2.3-2.7,3.51,3.51,0,0,0-.8-.5" transform="translate(-32.8 -23.3)"/><polyline class="cls-38" points="678.7 541.2 664.5 548.4 683 561.7 697.2 554.5 693.8 552.1 684.6 556.7 680.1 553.6 687.9 549.6 684.6 547.2 676.8 551.2 672.9 548.4 682.2 543.7 678.7 541.2"/><path class="cls-38" d="M736.4,559.4a13.65,13.65,0,0,0-7.2-2.1,16.06,16.06,0,0,0-7.5,1.9,7.25,7.25,0,0,0-3.5,3.1,4,4,0,0,0,.1,3.8,11.26,11.26,0,0,0,3.7,4l1.6,1.1a3.51,3.51,0,0,0,.8.5,18,18,0,0,0,8,2.6,15.34,15.34,0,0,0,8.7-1.7,13.61,13.61,0,0,0,4.1-3,4.72,4.72,0,0,0,1.5-3l-7.6-5.5-8.4,4.3,3.1,2.2,3.5-1.7,2.9,2.1c-.1.7-.8,1.4-2.1,2a7,7,0,0,1-4.7.7,12.39,12.39,0,0,1-3.9-1.6,10.14,10.14,0,0,1-1.3-.9l-1.1-.8c-1.8-1.3-2.8-2.4-3-3.4s.2-1.8,1.5-2.5a5.86,5.86,0,0,1,3.1-.7,7.73,7.73,0,0,1,3.3,1l4.4-2.4" transform="translate(-32.8 -23.3)"/><path class="cls-38" d="M746.7,557.2l-5.1-3.7,3.1-1.6a4.76,4.76,0,0,1,2.8-.6,5.68,5.68,0,0,1,2.2.7c.1.1.3.2.4.3.8.6,1.2,1.1,1.2,1.7s-.5,1.1-1.5,1.6l-3.1,1.6m7.3-8.1a10.32,10.32,0,0,0-5.5-1.5,16,16,0,0,0-7.2,1.8l-8.1,4.1,18.5,13.3,5-2.5-6.5-4.7,2.7-1.4,10.2,2.9,5.3-2.7-.2-.1-11.8-3.2a3.49,3.49,0,0,0,.7-2.8,5.55,5.55,0,0,0-2.3-2.7,3.51,3.51,0,0,0-.8-.5" transform="translate(-32.8 -23.3)"/><polyline class="cls-38" points="733.5 513.5 719.3 520.7 737.8 534 752 526.8 748.6 524.4 739.4 529 734.9 525.8 742.7 521.9 739.4 519.5 731.6 523.5 727.7 520.7 737 516 733.5 513.5"/><path class="cls-38" d="M788.8,531.5a11.46,11.46,0,0,0-3.4-1.3,15.32,15.32,0,0,0-4.8-.1,19.79,19.79,0,0,0-4.7,1.5,10.7,10.7,0,0,0-3.4,2.5,3.41,3.41,0,0,0-1,2.7,3.92,3.92,0,0,0,1.7,2.5c.2.1.3.2.5.3,2,1.2,4.8,1.6,8.4,1.1,1.2-.2,2.6-.4,4.3-.8a18.75,18.75,0,0,1,3.8-.6,3.94,3.94,0,0,1,2,.5c.1,0,.2.1.3.2.6.4.8.8.6,1.3a2.83,2.83,0,0,1-1.5,1.3,6.29,6.29,0,0,1-3.5.9,4.63,4.63,0,0,1-2.5-.8c-.2-.1-.3-.2-.5-.3l-5,2.5a1.61,1.61,0,0,0,.7.4,14.19,14.19,0,0,0,3.6,1.4,15.69,15.69,0,0,0,5.3,0A18.29,18.29,0,0,0,795,545c2.4-1.2,3.8-2.5,4.2-3.8s-.2-2.6-1.8-3.8c-.2-.1-.4-.3-.6-.4a12.67,12.67,0,0,0-7.5-1.4,34.18,34.18,0,0,0-4.8.8,36,36,0,0,1-4.2.7,3.74,3.74,0,0,1-2-.4.1.1,0,0,1-.1-.1,1.27,1.27,0,0,1-.6-1.3,2.84,2.84,0,0,1,1.6-1.4,6.6,6.6,0,0,1,2.7-.6,4.39,4.39,0,0,1,2.2.7c.1.1.2.1.3.2l5-2.5a1.42,1.42,0,0,1-.6-.2" transform="translate(-32.8 -23.3)"/><path class="cls-38" d="M806.9,522.3a11.46,11.46,0,0,0-3.4-1.3,15.32,15.32,0,0,0-4.8-.1,18.44,18.44,0,0,0-4.7,1.5,10.7,10.7,0,0,0-3.4,2.5,3.41,3.41,0,0,0-1,2.7,3.92,3.92,0,0,0,1.7,2.5c.2.1.3.2.5.3,2,1.2,4.8,1.6,8.4,1.1,1.2-.2,2.6-.4,4.3-.8a18.75,18.75,0,0,1,3.8-.6,3.94,3.94,0,0,1,2,.5c.1,0,.2.1.3.2.6.4.8.9.6,1.3a2.49,2.49,0,0,1-1.5,1.3,6.1,6.1,0,0,1-3.5.9,5.24,5.24,0,0,1-2.6-.8c-.2-.1-.3-.2-.5-.3l-5,2.5a1.61,1.61,0,0,0,.7.4,14.19,14.19,0,0,0,3.6,1.4,15.69,15.69,0,0,0,5.3,0,18.29,18.29,0,0,0,5.3-1.7c2.4-1.2,3.8-2.5,4.2-3.8s-.2-2.6-1.8-3.8c-.2-.1-.4-.3-.6-.4a12.67,12.67,0,0,0-7.5-1.4,34.18,34.18,0,0,0-4.8.8,36,36,0,0,1-4.2.7,3.74,3.74,0,0,1-2-.4l-.1-.1a1.27,1.27,0,0,1-.6-1.3,2.84,2.84,0,0,1,1.6-1.4,5.31,5.31,0,0,1,2.7-.6,4.39,4.39,0,0,1,2.2.7c.1.1.2.1.3.2l4.9-2.5c0,.1-.2-.1-.4-.2" transform="translate(-32.8 -23.3)"/><polyline class="cls-38" points="777 491.5 772.1 494 790.6 507.3 795.6 504.8 777 491.5"/><path class="cls-38" d="M828.8,518.6c-.5-.3-.9-.6-1.4-.9l-1.4-1c-3.2-2.5-3.6-4.3-1.1-5.6a7.12,7.12,0,0,1,4.4-.5,15.32,15.32,0,0,1,3.9,1.6c.5.3.9.6,1.4.9l.8.6c1.8,1.3,2.8,2.5,3.1,3.5s-.2,1.9-1.5,2.5a6.76,6.76,0,0,1-4.5.5,14.27,14.27,0,0,1-3.7-1.6m9.5-8.9a19.57,19.57,0,0,0-4.7-2,20,20,0,0,0-6.4-.7,16.13,16.13,0,0,0-5.8,1.6,7.68,7.68,0,0,0-3.6,3.2,4.44,4.44,0,0,0,0,3.9,10.5,10.5,0,0,0,3.7,4l1,.8,1,.7a20.57,20.57,0,0,0,4.8,2.1,16.91,16.91,0,0,0,6.3.6,16.13,16.13,0,0,0,5.8-1.6,8.2,8.2,0,0,0,3.6-3.2,4.14,4.14,0,0,0,0-3.9,10.5,10.5,0,0,0-3.7-4l-.8-.6-1.2-.9" transform="translate(-32.8 -23.3)"/><polyline class="cls-38" points="817.7 471 812.7 473.5 824.2 481.7 805.4 477.2 800.5 479.7 819 492.9 824 490.4 812.4 482.2 831.3 486.7 836.2 484.2 817.7 471"/></g></g><g class="cls-18"><g class="cls-39"><polyline class="cls-40" points="528.3 576.5 523.4 579 532.6 588.5 518.1 581.6 513.9 583.8 522.7 593.5 508.8 586.4 503.8 588.9 526.7 599.9 531.9 597.4 524 588.4 537.3 594.6 542.5 592 528.3 576.5"/><polyline class="cls-40" points="535.5 572.9 530.6 575.4 549.1 588.6 554 586.1 535.5 572.9"/><polyline class="cls-40" points="555.1 562.9 537.9 571.6 541.4 574.1 547.4 571 562.5 581.9 567.5 579.3 552.4 568.5 558.6 565.4 555.1 562.9"/><polyline class="cls-40" points="574.4 553.2 569.5 555.7 576.8 560.9 569.5 564.6 562.2 559.4 557.2 561.9 575.7 575.2 580.7 572.6 573 567.1 580.3 563.4 588 569 592.9 566.5 574.4 553.2"/></g></g><g class="cls-18"><g class="cls-41"><polyline class="cls-42" points="259 684.5 251 680.6 240.3 686.5 231.6 682.3 223.5 686.7 232.2 691 221.2 697 229.3 700.9 240.2 694.8 248.9 699 257 694.6 248.4 690.4 259 684.5"/><path class="cls-42" d="M323.7,715.4a26.33,26.33,0,0,0-7.8-2.3,30.25,30.25,0,0,0-8.5,0,21.48,21.48,0,0,0-7.4,2.4l8.6,4.2a8.16,8.16,0,0,1,4-.9,10.33,10.33,0,0,1,4.1.8c1.4.7,2,1.4,2,2.3s-.8,1.6-2.2,2.4c-3.5,1.9-6.8,2.1-10,.5l-4-2-7,3.9,4.2,2c1.6.8,2.5,1.7,2.6,2.6s-.9,2-3,3.1a11.13,11.13,0,0,1-4.9,1.3,10.43,10.43,0,0,1-5-1c-1.3-.7-2-1.5-2-2.4s.6-1.8,1.9-2.5l-8.6-4.2a11.23,11.23,0,0,0-4.6,4.2,4.34,4.34,0,0,0,.5,4.6,13.17,13.17,0,0,0,5.2,4.1,30.14,30.14,0,0,0,13.3,3,26.07,26.07,0,0,0,12.6-3c2.4-1.3,3.8-2.7,4.3-4.1a4.11,4.11,0,0,0-1.1-4.2,27.48,27.48,0,0,0,8.1,0,22.6,22.6,0,0,0,6.5-2c3.6-2,5.3-4.1,5-6.4-.5-2.3-2.7-4.4-6.8-6.4" transform="translate(-32.8 -23.3)"/><path class="cls-42" d="M320,749.5c-1.5-.7-1.9-1.7-1.2-2.8s2.6-2.5,5.7-4.2l10.5-5.7a26.86,26.86,0,0,1,7.2-2.8,7.47,7.47,0,0,1,5.2.5c1.5.7,1.9,1.7,1.1,2.8s-2.6,2.5-5.5,4.1l-10.1,5.5a29,29,0,0,1-7.5,3,8.66,8.66,0,0,1-5.4-.4m34.7-19.1a25.82,25.82,0,0,0-14-2.2,41.86,41.86,0,0,0-16.2,5.4l-7.5,4.1c-5.5,3-8.6,5.9-9.4,8.6s.9,5.1,5,7.1a24.91,24.91,0,0,0,14,2.1,43,43,0,0,0,16.2-5.4l7.4-4.1c5.5-3,8.6-5.9,9.4-8.7.9-2.5-.8-4.9-4.9-6.9" transform="translate(-32.8 -23.3)"/><path class="cls-42" d="M361.2,771.6c-.8-.4-1.1-.9-1-1.5a2.64,2.64,0,0,1,1.5-1.7l2.3-1.3a8.51,8.51,0,0,1,3.1-.9,5,5,0,0,1,2.8.5c.8.4,1.2.9,1.1,1.5s-.7,1.1-1.6,1.7l-2.9,1.6a5.84,5.84,0,0,1-5.3.1M375,764a16.48,16.48,0,0,0-8.3-1.6,18.85,18.85,0,0,0-8.4,2.3l-2,1.1c-2.7,1.5-4,3-4,4.5s1.2,3,3.7,4.2a16.48,16.48,0,0,0,8.3,1.6,19.41,19.41,0,0,0,8.3-2.3l2-1.1c2.7-1.5,4.1-3,4.1-4.6s-1.2-2.9-3.7-4.1m16.9-11.2-50.1,8.8,1.8,3.2,50.1-8.8-1.8-3.2m-25.3-2.4c-.9-.4-1.3-.9-1.1-1.5s.7-1.1,1.6-1.7l2.1-1.2a7.48,7.48,0,0,1,3.2-1,5.4,5.4,0,0,1,2.9.5c.9.4,1.2.9,1.1,1.5s-.7,1.1-1.7,1.7l-1.7.9c-2.5,1.5-4.7,1.7-6.4.8m13.8-7.6a16.48,16.48,0,0,0-8.3-1.6,18.85,18.85,0,0,0-8.4,2.3l-2,1.1c-2.7,1.5-4,3-4,4.5s1.2,3,3.7,4.2a16.48,16.48,0,0,0,8.3,1.6,18.09,18.09,0,0,0,8.3-2.3l2-1.1c2.6-1.5,4-3,4.1-4.5s-1.2-3-3.7-4.2" transform="translate(-32.8 -23.3)"/></g></g><g class="cls-18"><g class="cls-43"><path class="cls-44" d="M431.6,765.8l-40.1,4.8c3,1.5,6,3.1,8.9,4.6-6.2,3.8-12.3,7.7-18.5,11.6l17.8,9.2c6-3.9,12.1-7.8,18.1-11.8l8.1,4.2,5.7-22.6" transform="translate(-32.8 -23.3)"/></g></g><g class="cls-18"><g class="cls-45"><path class="cls-46" d="M973.9,344.1,961.1,359c2.2,1.1,4.5,2.3,6.7,3.4.2,6,.3,12,.5,18l13.4,6.9c-.3-6-.5-12.1-.8-18.1,2,1,4.1,2.1,6.1,3.1l-13.1-28.2" transform="translate(-32.8 -23.3)"/></g></g></g><polygon class="cls-47" points="703.9 40.4 690.3 47.3 695 371 708.7 364.1 703.9 40.4"/><polygon class="cls-48" points="698.5 51.4 712.2 44.5 698.7 0 685 6.8 698.5 51.4"/><polygon class="cls-49" points="695.1 371 953.8 502.9 967.5 496 708.8 364 695.1 371"/><polygon class="cls-48" points="967.5 486 953.8 492.9 984.2 524.5 997.9 517.6 967.5 486"/><g class="cls-18"><g class="cls-50"><polyline class="cls-51" points="953.8 502.9 695 371 695.2 382.5 686 377.8 685.8 366.3 686 377.8 954 514.4 953.8 502.9"/><polyline class="cls-51" points="690.3 47.3 681.1 42.6 685.8 366.3 686 377.8 695.2 382.5 695 371 690.3 47.3"/><polyline class="cls-51" points="684.9 6.8 673.3 38.6 698.5 51.4 684.9 6.8"/><polyline class="cls-51" points="953.7 492.8 954.2 524.4 984.3 524.7 953.7 492.8"/></g></g></svg>