<?xml version="1.0" encoding="utf-8"?>
<!-- Generator: Adobe Illustrator 23.0.3, SVG Export Plug-In . SVG Version: 6.00 Build 0)  -->
<svg version="1.1" xmlns="http://www.w3.org/2000/svg" xmlns:xlink="http://www.w3.org/1999/xlink" x="0px" y="0px"
	 viewBox="0 0 1029 768" style="enable-background:new 0 0 1029 768;" xml:space="preserve">
<style type="text/css">
	.st0{opacity:0.17;}
	.st1{fill:#A1B8E7;}
	.st2{fill:#FB6061;}
	.st3{fill:#FFFFFF;}
	.st4{fill:#CCCEE3;}
	.st5{fill:none;stroke:#10005F;stroke-width:19;stroke-linejoin:round;stroke-miterlimit:10;}
	.st6{fill:#B4B6D4;}
	.st7{stroke:#010041;stroke-width:10;stroke-miterlimit:10;}
	.st8{fill:#9C85E4;}
	.st9{fill:#B7E7F1;}
	.st10{fill:#F8BFFE;}
	.st11{fill:#9C59E4;}
	.st12{fill:none;stroke:#42122D;stroke-width:18;stroke-linejoin:round;stroke-miterlimit:10;}
	.st13{fill:none;stroke:#42122D;stroke-width:24;stroke-linejoin:round;stroke-miterlimit:10;}
	.st14{fill:none;stroke:#42122D;stroke-width:27;stroke-miterlimit:10;}
	.st15{fill:#FFFFFF;stroke:#42122D;stroke-width:27;stroke-miterlimit:10;}
	.st16{fill:none;stroke:#42122D;stroke-width:14;stroke-linejoin:round;stroke-miterlimit:10;}
	.st17{display:none;opacity:0.31;}
	.st18{opacity:0.27;fill:#2A1C00;}
	.st19{display:none;fill:none;stroke:#848484;stroke-width:2;stroke-miterlimit:10;}
	.st20{fill:#008FFF;}
	.st21{fill:#006FFF;}
	.st22{fill:none;stroke:#303030;stroke-width:12;stroke-miterlimit:10;}
	.st23{fill:#FF5555;stroke:#323232;stroke-width:7;stroke-miterlimit:10;}
	.st24{opacity:0.23;}
	.st25{fill:#FFFD75;}
	.st26{opacity:0.15;}
	.st27{fill:#FFD275;}
	.st28{fill:#AAFFFB;}
	.st29{fill:#FFFFFF;stroke:#FB6061;stroke-width:11;stroke-miterlimit:10;}
	.st30{fill:#FFFFFF;stroke:#FB6061;stroke-width:9;stroke-miterlimit:10;}
	.st31{fill:#FFFFFF;stroke:#FB6061;stroke-width:15;stroke-miterlimit:10;}
	.st32{display:none;fill:none;stroke:#303030;stroke-width:12;stroke-linejoin:round;stroke-miterlimit:10;}
	.st33{display:none;fill:none;stroke:#4F5357;stroke-width:14;stroke-miterlimit:10;}
	.st34{fill:none;stroke:#000000;stroke-width:10;stroke-linejoin:round;stroke-miterlimit:10;}
	.st35{fill:none;stroke:#303030;stroke-width:12;stroke-linejoin:round;stroke-miterlimit:10;}
</style>
<g id="Layer_12">
	<ellipse class="st0" cx="661.5" cy="634.5" rx="344.5" ry="74.5"/>
</g>
<g id="Layer_9">
	<polygon class="st1" points="200.16,151.58 172.7,185.47 186.14,185.47 186.14,226.37 213.02,226.37 213.02,185.47 226.46,185.47 	
		"/>
	<polygon class="st2" points="124.72,239.05 106.47,261.58 115.4,261.58 115.4,288.76 133.26,288.76 133.26,261.58 142.2,261.58 	
		"/>
	<polygon class="st1" points="61.23,229.45 47.92,245.89 54.43,245.89 54.43,265.72 67.47,265.72 67.47,245.89 73.98,245.89 	"/>
	<polygon class="st2" points="278.07,140.19 265.81,155.31 271.81,155.31 271.81,173.57 283.81,173.57 283.81,155.31 289.81,155.31 
			"/>
</g>
<g id="Layer_6">
	
		<rect x="162.85" y="301.68" transform="matrix(0.9858 -0.1678 0.1678 0.9858 -73.229 56.7361)" class="st3" width="272.48" height="319.97"/>
	<path class="st4" d="M404.48,285.33l52.43,306.26l-265.09,45.65c6.12-2.33-8.63-13.98-0.13-17.95
		c31.86-14.88,99.67-33.83,136.33-82.4c35.24-46.68-9.08-163.02,0.28-221.71C332.73,287.31,404.63,288.4,404.48,285.33z"/>
	<path class="st3" d="M439.38,576.49l-49.8-292.57l9.76-1.66l52.26,307.02l-265.48,45.19l-1.03-6.06L431.27,585
		c0.78-0.12,4.47-0.77,6.67-4.31C438.92,579.11,439.25,577.52,439.38,576.49z"/>
	
		<rect x="162.85" y="301.68" transform="matrix(0.9858 -0.1678 0.1678 0.9858 -73.229 56.7361)" class="st5" width="272.48" height="319.97"/>
</g>
<g id="Layer_7">
	
		<rect x="114.15" y="275.2" transform="matrix(0.8068 -0.5908 0.5908 0.8068 -208.736 231.9976)" class="st3" width="272.48" height="319.97"/>
	<path class="st4" d="M235.69,634.37"/>
	<path class="st3" d="M433.64,475.19L258.31,235.75l7.98-5.85l183.99,251.27l-217.27,159.1l-3.63-4.96L430.2,486.42
		c0.64-0.46,3.65-2.69,4.04-6.84C434.41,477.73,433.99,476.16,433.64,475.19z"/>
	
		<rect x="114.15" y="275.2" transform="matrix(0.8304 -0.5571 0.5571 0.8304 -199.9978 213.3008)" class="st5" width="272.48" height="319.97"/>
</g>
<g id="colorGDP">
	
		<rect x="113.83" y="271.97" transform="matrix(0.9566 -0.2913 0.2913 0.9566 -114.9693 91.5647)" class="st3" width="272.48" height="319.97"/>
	<path class="st4" d="M346.74,309.57l76.32,231.28l-251.89,76.69c27.83-13.4,80.25-43.05,121.85-99.06
		C360.54,427.55,350.19,333.55,346.74,309.57z"/>
	<path class="st3" d="M406.41,530.8l-71.65-235.33l9.45-2.88l75.19,246.95l-257.29,78.34l-1.49-4.88l238.49-73.89
		c0.76-0.22,4.33-1.33,6.21-4.61C406.17,533.04,406.37,531.67,406.41,530.8z"/>
	<path class="st6" d="M284.68,392.1l-61.24,18.65c-1.92,0.59-3.01,2.62-2.42,4.54l0.29,0.96c0.59,1.92,2.62,3.01,4.54,2.42
		l61.24-18.65c1.92-0.59,3.01-2.62,2.42-4.54l-0.29-0.96C288.64,392.6,286.6,391.51,284.68,392.1z"/>
	<path class="st6" d="M285.2,415.93l-69.71,21.22c-1.92,0.59-3.01,2.62-2.42,4.54l0.29,0.96c0.59,1.92,2.62,3.01,4.54,2.42
		l69.71-21.22c1.92-0.59,3.01-2.62,2.42-4.54l-0.29-0.96C289.15,416.43,287.12,415.34,285.2,415.93z"/>
	<path class="st6" d="M254.29,456.65l-47.76,14.54c-1.92,0.59-3.01,2.62-2.42,4.54l0.29,0.96c0.59,1.92,2.62,3.01,4.54,2.42
		l47.76-14.54c1.92-0.59,3.01-2.62,2.42-4.54l-0.29-0.96C258.24,457.15,256.21,456.07,254.29,456.65z"/>
	<path class="st6" d="M280.32,463.38l-69.71,21.22c-1.92,0.59-3.01,2.62-2.42,4.54l0.29,0.96c0.59,1.92,2.62,3.01,4.54,2.42
		l69.71-21.22c1.92-0.59,3.01-2.62,2.42-4.54l-0.29-0.96C284.28,463.88,282.25,462.8,280.32,463.38z"/>
	<path class="st6" d="M266.54,496.9l-47.76,14.54c-1.92,0.59-3.01,2.62-2.42,4.54l0.29,0.96c0.59,1.92,2.62,3.01,4.54,2.42
		l47.76-14.54c1.92-0.59,3.01-2.62,2.42-4.54l-0.29-0.96C270.5,497.39,268.46,496.31,266.54,496.9z"/>
	<path class="st6" d="M329.77,492.3l-108.13,32.92c-1.92,0.59-3.01,2.62-2.42,4.54l0.29,0.96c0.59,1.92,2.62,3.01,4.54,2.42
		l108.13-32.92c1.92-0.59,3.01-2.62,2.42-4.54l-0.29-0.96C333.73,492.8,331.69,491.72,329.77,492.3z"/>
	<path class="st6" d="M206.56,415.88l-49.59,15.1c-1.92,0.59-3.01,2.62-2.42,4.54l0.29,0.96c0.59,1.92,2.62,3.01,4.54,2.42
		l49.59-15.1c1.92-0.59,3.01-2.62,2.42-4.54l-0.29-0.96C210.52,416.38,208.48,415.3,206.56,415.88z"/>
	<path class="st6" d="M328.58,378.73l-25.42,7.74c-1.92,0.59-3.01,2.62-2.42,4.54l0.29,0.96c0.59,1.92,2.62,3.01,4.54,2.42
		l25.42-7.74c1.92-0.59,3.01-2.62,2.42-4.54l-0.29-0.96C332.54,379.23,330.5,378.15,328.58,378.73z"/>
	<path class="st6" d="M175.9,503.51l-12.47,3.8c-4.97,1.51-10.23-1.29-11.75-6.26l-3.24-10.65c-1.51-4.97,1.29-10.23,6.26-11.75
		l12.47-3.8c4.97-1.51,10.23,1.29,11.75,6.26l3.24,10.65C183.68,496.73,180.87,501.99,175.9,503.51z"/>
	<path class="st6" d="M188.15,543.75l-12.47,3.8c-4.97,1.51-10.23-1.29-11.75-6.26l-3.24-10.65c-1.51-4.97,1.29-10.23,6.26-11.75
		l12.47-3.8c4.97-1.51,10.23,1.29,11.75,6.26l3.24,10.65C195.93,536.97,193.13,542.23,188.15,543.75z"/>
</g>
<g id="outlineGDP">
	
		<rect x="113.83" y="271.97" transform="matrix(0.9566 -0.2913 0.2913 0.9566 -114.9693 91.5647)" class="st5" width="272.48" height="319.97"/>
	<g>
		<g>
			<path class="st7" d="M186.25,359.2c-2.68,2.04-8.16,5.55-15.2,7.69c-7.92,2.41-15.04,2.44-21.58-0.81
				c-5.79-2.87-10.62-8.8-13.03-16.75c-4.61-15.24,2.7-29.65,20.19-34.97c6.03-1.84,11.21-1.99,13.77-1.63l-0.05,5.89
				c-3.16-0.39-6.93-0.28-12.2,1.32c-12.67,3.86-18.62,14.09-14.73,26.88c3.94,12.94,14.21,18.18,26.42,14.47
				c4.41-1.34,7.21-2.86,8.54-4.1l-4.63-15.21l-10.56,3.22l-1.61-5.27l17.19-5.23L186.25,359.2z"/>
			<path class="st7" d="M192.63,304.73c3.94-1.92,8.7-3.85,14.01-5.47c9.66-2.94,17.26-2.81,23.1-0.03
				c5.93,2.71,10.45,7.8,12.95,16.02c2.55,8.37,1.94,15.96-1.46,22.15c-3.49,6.26-10.76,11.32-20.87,14.4
				c-4.83,1.47-8.89,2.5-12.44,3.16L192.63,304.73z M213.16,347.84c1.79-0.25,4.3-0.97,6.88-1.75
				c14.46-4.37,19.85-14.61,15.64-28.42c-3.59-12.08-12.88-17.57-27.1-13.24c-3.49,1.06-6.01,2.17-7.7,3.08L213.16,347.84z"/>
			<path class="st7" d="M254.96,285.67c3.08-1.56,7.2-3.31,12.67-4.97c6.62-2.02,11.97-2.01,15.92-0.21
				c3.58,1.58,6.46,4.75,7.85,9.29c1.41,4.63,1.11,8.71-0.73,12.16c-2.46,4.83-7.66,8.44-14.25,10.45c-2.05,0.62-3.92,1.11-5.6,1.18
				l6.24,20.48l-6.74,2.05L254.96,285.67z M269.19,308.21c1.63-0.03,3.55-0.46,5.77-1.13c8.18-2.49,11.92-7.92,9.79-14.89
				c-2.06-6.76-7.99-8.56-15.39-6.31c-2.97,0.91-5.1,1.85-6.22,2.46L269.19,308.21z"/>
		</g>
	</g>
</g>
<g id="colors">
	<path class="st8" d="M344.04,48.52c0,15.04,0,30.08,0,45.11c0.31,1.62,1.59,7.15,6.72,11.52c5.15,4.39,10.83,4.75,12.48,4.8
		c193.26,0.32,386.51,0.64,579.77,0.96c2.33-1.1,6.83-3.6,10.56-8.64c3.04-4.11,4.27-8.16,4.8-10.56c0-15.36,0-30.72,0-46.07
		c-0.79-2.95-2.72-8.5-7.68-13.44c-9-8.95-20.77-8.73-23.04-8.64c-187.82,1.28-375.63,2.56-563.45,3.84
		c-1.77-0.03-8.13,0.08-13.44,4.8c-2.66,2.36-4.07,5-4.8,6.72C345.32,42.12,344.68,45.32,344.04,48.52z"/>
	<polygon class="st3" points="370.92,115.71 370.92,405.59 892.13,411.35 892.13,115.71 	"/>
	<polygon class="st8" points="614.25,602.85 652.16,602.85 688.06,602.85 690.08,449.27 614.25,449.27 	"/>
	<path class="st8" d="M568.17,603.81c-2.65,0.22-7.51,0.86-12.48,3.84c-8.82,5.28-11.75,13.92-12.48,16.32
		c-0.92,2.91-1.92,7.21-1.92,12.48c0,3.05,0.34,7.45,1.92,12.48c1.28,2.94,3.36,6.75,6.72,10.56c6.21,7.02,13.39,10.16,17.28,11.52
		c55.03-0.32,110.07-0.64,165.1-0.96c13.86-3.03,24.89-12.98,28.36-25.86c3.94-14.61-3.55-26.64-4.37-27.89
		c-5.51-8.54-13.26-12.19-16.32-13.44C648.34,602.3,581.25,602.74,568.17,603.81z"/>
	<path class="st9" d="M588.33,181.46c15.04,0,30.08,0,45.11,0c0,20.8,0,41.59,0,62.39c0,34.24,0,68.47,0,102.71
		c-15.04,0-30.08,0-45.11,0C588.33,291.53,588.33,236.49,588.33,181.46z"/>
	<path class="st9" d="M668.96,215.06c15.04,0,30.08,0,45.11,0c0,16.57,0,33.13,0,49.7c0,27.27,0,54.54,0,81.81
		c-15.04,0-30.08,0-45.11,0C668.96,302.73,668.96,258.89,668.96,215.06z"/>
	<path class="st9" d="M747.67,250.57c15.04,0,30.08,0,45.11,0c0,12.09,0,24.18,0,36.27c0,19.9,0,39.81,0,59.71
		c-15.04,0-30.08,0-45.11,0C747.67,314.56,747.67,282.57,747.67,250.57z"/>
	<path class="st9" d="M827.34,280.33c15.04,0,30.08,0,45.11,0c0,8.46,0,16.93,0,25.39c0,13.93,0,27.87,0,41.8
		c-15.04,0-30.08,0-45.11,0C827.34,325.12,827.34,302.73,827.34,280.33z"/>
	<path class="st10" d="M379.08,386.88c1.02,1.41,3.14,3.95,6.72,5.76c2.68,1.35,5.14,1.78,6.72,1.92
		c150.7-0.32,301.4-0.64,452.1-0.96c2.59-0.49,12.16-2.62,19.2-11.52c5.52-6.97,6.49-14.33,6.72-17.28c0-80.31,0-160.62,0-240.93
		h52.79l0.96,282.2c0.35,1.7,2.44,12.69-4.8,22.08c-6.29,8.15-17.16,11.89-27.84,9.6c-70.39-0.32-140.78-0.64-211.17-0.96h-282.2
		l-27.84-14.4C373.32,410.55,376.2,398.71,379.08,386.88z"/>
	<polygon class="st11" points="614.25,462.71 615.21,512.62 684.32,512.62 684.32,462.71 	"/>
	<path class="st11" d="M841.74,25.48v1.42v9.8c2.66,5.78,6.68,16.53,6.72,30.53c0.04,14.21-4.05,25.1-6.72,30.9
		c0,2.98,0,5.96,0,8.94l103.58-1.92l16.89-43.19l-37.15-36.48H841.74z"/>
	<path class="st11" d="M834.06-5.72"/>
	<path class="st11" d="M992.44,109.47"/>
</g>
<g id="outline">
	<path class="st12" d="M429.95,249.61c31.11,0.27,62.21,0.54,93.32,0.81c3.77,0.05,7.54,0.1,11.31,0.15
		C499.7,250.25,464.83,249.93,429.95,249.61z"/>
	<path class="st12" d="M429.95,298.57c31.11,0.27,62.21,0.54,93.32,0.81c3.77,0.05,7.54,0.1,11.31,0.15
		C499.7,299.21,464.83,298.89,429.95,298.57z"/>
	<path class="st12" d="M429.95,346.56c31.11,0.27,62.21,0.54,93.32,0.81c3.77,0.05,7.54,0.1,11.31,0.15
		C499.7,347.2,464.83,346.88,429.95,346.56z"/>
	<polygon class="st13" points="614.25,602.85 652.16,602.85 688.06,602.85 690.08,449.27 614.25,449.27 	"/>
	<path class="st13" d="M568.17,603.81c-2.65,0.22-7.51,0.86-12.48,3.84c-8.82,5.28-11.75,13.92-12.48,16.32
		c-0.92,2.91-1.92,7.21-1.92,12.48c0,3.05,0.34,7.45,1.92,12.48c1.28,2.94,3.36,6.75,6.72,10.56c6.21,7.02,13.39,10.16,17.28,11.52
		c55.03-0.32,110.07-0.64,165.1-0.96c13.86-3.03,24.89-12.98,28.36-25.86c3.94-14.61-3.55-26.64-4.37-27.89
		c-5.51-8.54-13.26-12.19-16.32-13.44C648.34,602.3,581.25,602.74,568.17,603.81z"/>
	<path class="st14" d="M344.04,48.52c0,15.04,0,30.08,0,45.11c0.31,1.62,1.59,7.15,6.72,11.52c5.15,4.39,10.83,4.75,12.48,4.8
		c193.26,0.32,386.51,0.64,579.77,0.96c2.33-1.1,6.83-3.6,10.56-8.64c3.04-4.11,4.27-8.16,4.8-10.56c0-15.36,0-30.72,0-46.07
		c-0.79-2.95-2.72-8.5-7.68-13.44c-9-8.95-20.77-8.73-23.04-8.64c-187.82,1.28-375.63,2.56-563.45,3.84
		c-1.77-0.03-8.13,0.08-13.44,4.8c-2.66,2.36-4.07,5-4.8,6.72C345.32,42.12,344.68,45.32,344.04,48.52z"/>
	<path class="st14" d="M367.31,110.91c-0.4,98.23-0.8,196.46-1.19,294.68c-0.19,3.44-0.56,17.45,9.6,29.76
		c7.31,8.85,16.28,12.23,20.16,13.44c167.5,0.48,335,0.96,502.5,1.44c4.02-0.25,13.43-1.4,22.56-8.16
		c12.51-9.26,15.62-22.5,16.32-25.92c0-0.96,0-12.47,0-13.44c-0.01-97.27-0.17-194.54-0.48-291.8
		C746.95,110.91,557.13,110.91,367.31,110.91z"/>
	<path class="st15" d="M872.94,123.39"/>
	<path class="st16" d="M588.33,181.46c15.04,0,30.08,0,45.11,0c0,20.8,0,41.59,0,62.39c0,34.24,0,68.47,0,102.71
		c-15.04,0-30.08,0-45.11,0C588.33,291.53,588.33,236.49,588.33,181.46z"/>
	<path class="st16" d="M668.96,215.06c15.04,0,30.08,0,45.11,0c0,16.57,0,33.13,0,49.7c0,27.27,0,54.54,0,81.81
		c-15.04,0-30.08,0-45.11,0C668.96,302.73,668.96,258.89,668.96,215.06z"/>
	<path class="st16" d="M747.67,250.57c15.04,0,30.08,0,45.11,0c0,12.09,0,24.18,0,36.27c0,19.9,0,39.81,0,59.71
		c-15.04,0-30.08,0-45.11,0C747.67,314.56,747.67,282.57,747.67,250.57z"/>
	<path class="st16" d="M827.34,280.33c15.04,0,30.08,0,45.11,0c0,8.46,0,16.93,0,25.39c0,13.93,0,27.87,0,41.8
		c-15.04,0-30.08,0-45.11,0C827.34,325.12,827.34,302.73,827.34,280.33z"/>
</g>
<g id="colorsProps">
	<path class="st17" d="M866,352.19c64.33-37.06,128.67-74.13,193-111.19c-1.68,6.27-5.29,23.09,2,42c4.54,11.77,11.49,19.65,16,24
		C1006.67,322.06,936.33,337.13,866,352.19z"/>
</g>
<g id="Layer_11">
	<path class="st18" d="M323,193l281,33c-37-44.67-74-89.33-111-134c0.5,33.17,1,66.33,1.5,99.5C437.33,192,380.17,192.5,323,193z"/>
	<path class="st19" d="M322,191c94,11.67,188,23.33,282,35c-37-44.67-74-89.33-111-134c0.5,33.17,1,66.33,1.5,99.5
		C437,191.33,379.5,191.17,322,191z"/>
	<path class="st18" d="M492.5,191.5c37.17,11.5,74.33,23,111.5,34.5c-94-11.67-188-23.33-282-35
		C378.83,191.17,435.67,191.33,492.5,191.5z"/>
	<path class="st19" d="M492.5,191.5c37.17,11.5,74.33,23,111.5,34.5c-94-11.67-188-23.33-282-35
		C378.83,191.17,435.67,191.33,492.5,191.5z"/>
	<rect x="263.28" y="27.1" class="st20" width="225.31" height="158.61"/>
	<path class="st21" d="M469.85,27.1c0.01,2.98,0,50.81,0,78.34c0,29.78,0.12,38.37,0.03,69.69c-0.01,4.43-0.03,8.1-0.03,10.57
		c5.8,1.54,11.79,0,15.49-4.07c3.27-3.59,3.61-7.91,3.66-9.35c-0.44-46.06-0.62-81.19-0.41-106.96c0.08-10.09,0.37-37.11-5.69-38.23
		c-0.33-0.06-0.62-0.03-0.81,0C478.01,27.1,473.93,27.1,469.85,27.1z"/>
	<rect x="263.28" y="27.1" class="st22" width="225.31" height="158.61"/>
	<circle class="st23" cx="377.4" cy="105.94" r="67.32"/>
	<path class="st24" d="M409.31,74.61c-23.61,0-47.22,0-70.83,0c0.34,5.15,1.96,18.81,12.65,28.67c2.33,2.15,4.74,3.8,7.03,5.06
		c-1.35,0.65-3.28,1.71-5.34,3.37c-3.22,2.6-5.04,5.3-6.75,7.87c-2.39,3.6-3.73,6.69-4.22,7.87c-2.22,5.36-3.1,10.44-3.37,14.62
		c23.14,0,46.28,0,69.42,0c0.37-3.41,0.88-12.39-4.22-21.92c-4.34-8.12-10.53-12.5-13.49-14.33c3.99-3.18,10.13-8.96,14.62-17.99
		C407.27,82.87,408.58,78.27,409.31,74.61z"/>
	<path class="st25" d="M396.94,72.08c-0.01,4.16-0.5,10.24-2.81,17.15c-2.55,7.63-6.29,13.17-8.99,16.58
		c2.29,2.87,4.86,6.7,7.03,11.52c4,8.91,4.75,17.06,4.78,22.2c-1.87,0-3.75,0-5.62,0c0.2-5.65-0.29-10.33-0.84-13.77
		c-0.59-3.64-1.32-6.35-1.97-8.71c-0.98-3.59-1.59-5.07-1.97-5.9c-1.05-2.34-2.21-4.13-3.09-5.34c0.68-0.89,1.62-2.22,2.53-3.94
		c0.5-0.94,1.69-3.32,3.09-9.28c0.45-1.92,1.17-5.03,1.69-9.28c0.36-2.98,0.65-6.79,0.56-11.24
		C393.19,72.08,395.06,72.08,396.94,72.08z"/>
	<path class="st25" d="M349.72,72.08c-1.87,0-3.75,0-5.62,0c0.34,5.15,1.96,18.81,12.65,28.67c2.33,2.15,4.74,3.8,7.03,5.06
		c-1.35,0.65-3.28,1.71-5.34,3.37c-3.22,2.6-5.04,5.3-6.75,7.87c-2.39,3.6-3.73,6.69-4.22,7.87c-2.22,5.36-3.1,10.44-3.37,14.62
		c1.87,0,3.75,0,5.62,0c-0.07-4.38,0.47-10.34,3.09-16.58c1.82-4.33,4.11-7.57,5.34-9.28c2.19-3.05,4.04-4.91,4.78-5.62
		c0.98-0.95,1.86-1.71,2.53-2.25c-1.27-1.11-2.96-2.7-4.78-4.78c-1.89-2.16-4.7-5.42-7.03-10.4c-1.98-4.24-2.7-7.83-3.09-9.84
		C349.89,77.34,349.72,74.35,349.72,72.08z"/>
	<path class="st25" d="M356.46,72.08c-1.87,0-3.75,0-5.62,0c0.06,5.07,0.84,12.51,4.5,19.39c1.54,2.9,3.59,5.71,3.93,6.18
		c2.63,3.59,5.27,6.29,7.31,8.15c-0.99,0.93-2.37,2.26-3.94,3.94c-2.11,2.25-3.23,3.45-4.5,5.34c-0.94,1.4-1.53,2.56-2.53,4.5
		c-0.66,1.29-1.29,2.52-1.97,4.22c-0.04,0.09-0.82,2.08-1.41,4.22c-1.3,4.75-1.4,9.59-1.41,11.52c1.87,0,3.75,0,5.62,0
		c0.15-4.1,0.62-7.61,1.12-10.4c0.29-1.58,0.56-3.08,1.12-5.06c0.3-1.06,1.45-4.95,3.93-9.56c1.29-2.39,2.61-4.35,3.65-5.9
		c0.78-1.16,1.47-2.12,1.97-2.81c-1.54-1.91-3.5-4.63-5.34-8.15c-1.42-2.72-2.24-4.92-2.81-6.46c-1.9-5.16-2.65-9.22-2.81-10.12
		C356.89,78.71,356.51,75.66,356.46,72.08z"/>
	<path class="st25" d="M357.59,72.08c0.01,4.16,0.5,10.24,2.81,17.15c2.55,7.63,6.29,13.17,8.99,16.58
		c-2.29,2.87-4.86,6.7-7.03,11.52c-4,8.91-4.75,17.06-4.78,22.2c1.87,0,3.75,0,5.62,0c-0.2-5.65,0.29-10.33,0.84-13.77
		c0.59-3.64,1.32-6.35,1.97-8.71c0.98-3.59,1.59-5.07,1.97-5.9c1.05-2.34,2.21-4.13,3.09-5.34c-0.68-0.89-1.62-2.22-2.53-3.94
		c-0.5-0.94-1.69-3.32-3.09-9.28c-0.45-1.92-1.17-5.03-1.69-9.28c-0.36-2.98-0.65-6.79-0.56-11.24
		C361.34,72.08,359.46,72.08,357.59,72.08z"/>
	<path class="st25" d="M369.96,72.08h-5.62c0.03,4.76,0.39,8.92,0.84,12.37c0.45,3.44,0.84,6.4,1.97,10.12
		c1.33,4.42,3.17,8.17,5.06,11.24c-1.07,1.71-2.59,4.38-3.93,7.87c-2.23,5.78-2.8,10.71-3.37,16.02c-0.26,2.39-0.53,5.76-0.56,9.84
		c1.87,0,3.75,0,5.62,0c-0.2-6.56,0-12.08,0.28-16.3c0.36-5.47,0.86-8.89,1.97-12.65c0.59-2.01,1.21-3.64,1.69-4.78
		c-0.66-1.44-1.56-3.65-2.25-6.46c-0.53-2.17-0.73-4.07-1.12-7.87c-0.27-2.62-0.52-5.01-0.56-8.15c-0.01-0.9-0.01-2.2-0.01-4.55
		c0-1.43,0.01-2.4,0.01-3.88C369.96,73.71,369.96,72.73,369.96,72.08z"/>
	<path class="st25" d="M376.7,72.08h-5.62c-0.15,7.34,0.2,13.13,0.56,17.15c0.33,3.58,0.68,5.94,1.12,8.15
		c0.69,3.47,1.55,6.34,2.25,8.43c-0.58,1.65-1.31,3.95-1.97,6.75c-0.28,1.19-1.16,5.09-1.69,12.37c-0.28,3.82-0.48,8.78-0.28,14.62
		c1.87,0,3.75,0,5.62,0V105.8V72.08z"/>
	<path class="st25" d="M404.81,72.08c1.25,0,2.49,0,3.74,0c0.63,0,1.26,0,1.88,0c-0.34,5.15-1.96,18.81-12.65,28.67
		c-2.33,2.15-4.74,3.8-7.03,5.06c1.35,0.65,3.28,1.71,5.34,3.37c3.22,2.6,5.04,5.3,6.75,7.87c2.39,3.6,3.73,6.69,4.22,7.87
		c2.22,5.36,3.1,10.44,3.37,14.62c-1.87,0-3.75,0-5.62,0c0.07-4.38-0.47-10.34-3.09-16.58c-1.82-4.33-4.11-7.57-5.34-9.28
		c-2.19-3.05-4.04-4.91-4.78-5.62c-0.98-0.95-1.86-1.71-2.53-2.25c1.27-1.11,2.96-2.7,4.78-4.78c1.89-2.16,4.7-5.42,7.03-10.4
		c1.98-4.24,2.7-7.83,3.09-9.84C404.63,77.34,404.81,74.35,404.81,72.08z"/>
	<path class="st25" d="M398.06,72.08c1.87,0,3.75,0,5.62,0c-0.06,5.07-0.84,12.51-4.5,19.39c-1.54,2.9-3.59,5.71-3.93,6.18
		c-2.63,3.59-5.27,6.29-7.31,8.15c0.99,0.93,2.37,2.26,3.93,3.94c2.11,2.25,3.23,3.45,4.5,5.34c0.94,1.4,1.53,2.56,2.53,4.5
		c0.66,1.29,1.29,2.52,1.97,4.22c0.04,0.09,0.82,2.08,1.41,4.22c1.3,4.75,1.4,9.59,1.41,11.52c-1.87,0-3.75,0-5.62,0
		c-0.15-4.1-0.62-7.61-1.12-10.4c-0.29-1.58-0.56-3.08-1.12-5.06c-0.3-1.06-1.45-4.95-3.93-9.56c-1.29-2.39-2.61-4.35-3.65-5.9
		c-0.78-1.16-1.47-2.12-1.97-2.81c1.54-1.91,3.5-4.63,5.34-8.15c1.42-2.72,2.24-4.92,2.81-6.46c1.9-5.16,2.65-9.22,2.81-10.12
		C397.64,78.71,398.02,75.66,398.06,72.08z"/>
	<path class="st25" d="M384.57,72.08h5.62c-0.03,4.76-0.39,8.92-0.84,12.37c-0.45,3.44-0.84,6.4-1.97,10.12
		c-1.33,4.42-3.17,8.17-5.06,11.24c1.07,1.71,2.59,4.38,3.94,7.87c2.23,5.78,2.8,10.71,3.37,16.02c0.26,2.39,0.53,5.76,0.56,9.84
		c-1.87,0-3.75,0-5.62,0c0.2-6.56,0-12.08-0.28-16.3c-0.36-5.47-0.86-8.89-1.97-12.65c-0.59-2.01-1.21-3.64-1.69-4.78
		c0.66-1.44,1.56-3.65,2.25-6.46c0.53-2.17,0.73-4.07,1.12-7.87c0.27-2.62,0.52-5.01,0.56-8.15c0.01-0.9,0.01-2.2,0.01-4.55
		c0-1.43-0.01-2.4-0.01-3.88C384.57,73.71,384.57,72.73,384.57,72.08z"/>
	<path class="st25" d="M377.83,72.08h5.62c0.15,7.34-0.2,13.13-0.56,17.15c-0.33,3.58-0.68,5.94-1.12,8.15
		c-0.69,3.47-1.55,6.34-2.25,8.43c0.58,1.65,1.31,3.95,1.97,6.75c0.28,1.19,1.16,5.09,1.69,12.37c0.28,3.82,0.48,8.78,0.28,14.62
		c-1.87,0-3.75,0-5.62,0V105.8V72.08z"/>
	<path class="st26" d="M401.78,43.07c3.33,2.41,31.13,23.22,32.26,60.21c1.26,41.2-31.72,64.62-34.01,66.19
		c5.31-1.88,23.56-9.08,35.42-28.81c10.14-16.87,9.81-33.29,9.4-39.35c-0.42-6.1-2.23-20.2-12.21-34.29
		C421.71,51.59,407.42,45.24,401.78,43.07z"/>
	<path class="st27" d="M390.19,105.8c3.24-2.23,9.69-7.33,14.05-16.3c3.47-7.14,4.13-13.66,4.22-17.43c0.66,0,1.31,0,1.97,0
		c-0.12,2.74-0.54,6.7-1.97,11.24c-0.94,3-2.96,9.21-8.43,15.18c-1.86,2.03-4.87,4.85-9.28,7.31c1.76,0.82,4.24,2.21,6.75,4.5
		c2.08,1.9,3.3,3.63,4.5,5.34c3.32,4.75,5.01,9.04,5.62,10.68c1.89,5.1,2.58,9.71,2.81,13.21c-0.75,0-1.5,0-2.25,0
		c-0.09-2.08-0.35-5.01-1.12-8.43c-0.85-3.75-2.59-11.09-8.43-17.99C396.94,111.12,394.22,108.36,390.19,105.8z"/>
	<path class="st27" d="M402.56,122.95"/>
	<path class="st27" d="M403.68,72.08h-2.05c0.15,3.38-0.05,7.75-1.32,12.65c-2.82,10.85-9.24,17.86-12.65,21.08
		c2.78,2.59,7,7.18,10.12,14.05c3.74,8.24,4.05,15.68,3.92,19.68c0.66,0,1.32,0,1.98,0c0.02-2.61-0.2-6.11-1.12-10.12
		c-1.34-5.8-3.56-10.01-4.78-12.09c-3.22-5.51-7.05-9.24-9.84-11.52c2-1.84,4.52-4.44,7.03-7.87c1.52-2.09,3.98-5.51,5.9-10.4
		C403.1,81.88,403.72,76.48,403.68,72.08z"/>
	<path class="st27" d="M396.94,72.08h-1.97c-0.02,4.24-0.48,9.9-2.25,16.3c-2.11,7.64-5.31,13.5-7.87,17.43
		c2.17,3.55,4.55,8.16,6.46,13.77c2.67,7.83,3.48,14.83,3.65,19.96c0.66,0,1.31,0,1.97,0c-0.03-5.14-0.77-13.29-4.78-22.2
		c-2.17-4.82-4.74-8.65-7.03-11.52c2.53-3.22,5.72-7.99,8.15-14.33C396.3,83.61,396.91,76.62,396.94,72.08z"/>
	<path class="st27" d="M390.19,72.08h-2.03c0.05,3.74-0.08,6.83-0.22,8.99c-0.38,5.93-0.75,11.22-2.81,17.43
		c-1.07,3.22-2.27,5.73-3.09,7.31c2.09,4.39,3.25,8.2,3.93,10.96c1.15,4.68,1.47,8.59,1.97,14.62c0.28,3.36,0.41,6.16,0.48,8.15
		c0.59,0,1.18,0,1.76,0c-0.01-2.88-0.13-5.35-0.28-7.31c-0.25-3.28-0.6-5.84-0.84-7.59c-0.26-1.87-0.39-2.8-0.56-3.65
		c-0.86-4.33-2.32-7.54-3.37-9.84c-0.64-1.39-1.56-3.23-2.81-5.34c2.69-4.54,4.19-8.6,5.06-11.52c1.39-4.67,1.79-8.53,2.25-12.93
		C390.03,77.57,390.15,74.38,390.19,72.08z"/>
	<path class="st28" d="M543,83"/>
</g>
<g id="props">
	<circle class="st29" cx="265.34" cy="609.08" r="29.76"/>
	<circle class="st30" cx="389.84" cy="458.66" r="20.4"/>
	<circle class="st30" cx="551.45" cy="575.47" r="20.4"/>
	<circle class="st30" cx="754.68" cy="467.46" r="20.4"/>
	<circle class="st30" cx="928.29" cy="336.25" r="20.4"/>
	<path class="st31" d="M285.01,582.69l88.43-109.23L285.01,582.69z"/>
	<path class="st31" d="M406.17,470.89l122.88,99.78L406.17,470.89z"/>
	<path class="st31" d="M571.46,571.47l164.13-96.81L571.46,571.47z"/>
	<path class="st31" d="M911.4,347.68L771.67,456.95L911.4,347.68z"/>
	<circle class="st29" cx="390.18" cy="459.43" r="29.76"/>
	<circle class="st29" cx="551.44" cy="575.57" r="29.76"/>
	<circle class="st29" cx="754.94" cy="467.11" r="29.76"/>
	<circle class="st29" cx="928.67" cy="336.56" r="29.76"/>
	<path class="st1" d="M353.16,120.99"/>
	<path class="st32" d="M866,352.19c63.67-37.4,127.33-74.79,191-112.19c-1.43,7.22-3.73,24.18,4,43c4.68,11.39,11.31,19.29,16,24
		C1006.67,322.06,936.33,337.13,866,352.19z"/>
	<circle class="st33" cx="1145.71" cy="251.17" r="89.05"/>
	<path class="st34" d="M1011.37,340.8"/>
	<path class="st34" d="M1041.39,168.98"/>
	<path class="st35" d="M1007.8,174.74"/>
	<g id="Layer_14">
	</g>
</g>
</svg>
